<svg xmlns="http://www.w3.org/2000/svg" width="260" height="296.3" viewBox="0 0 260 296.3"><path fill="#ED1652" d="M114.6 101c.4.7 1.3 1.2 2 1.2h15.5c.7 0 1.7-.5 2-1.2l7.7-13.4c.4-.7.4-1.7 0-2.4l-7.7-13.4c-.4-.7-1.3-1.2-2-1.2h-15.4c-.7 0-1.7.5-2 1.2L107 85.2c-.4.7-.4 1.7 0 2.4l7.6 13.4zm9.8-21.8c3.9 0 7.1 3.2 7.1 7.1s-3.2 7.1-7.1 7.1-7.1-3.2-7.1-7.1 3.2-7.1 7.1-7.1z"/><path stroke="#4D4C46" stroke-width="2" stroke-miterlimit="10" d="M198 296.3M221.4 271.4" fill="none"/><path fill="#4D4C46" d="M7.2 294.5V0h198.4c8.5 0 15.3 6.9 15.3 15.4v263.2c0 8.7-7.1 15.8-15.7 15.8l-198 .1zm3.5-3.6h194.4c6.7 0 12.2-5.5 12.2-12.3V15.5c0-6.5-5.3-11.9-11.8-11.9H10.7v287.3zM53.2 195H191v3.6H53.2zM53.2 223.2H191v3.6H53.2zM53.2 166.8h137.7v3.6H53.2zM53.2 138.6h137.7v3.6H53.2zM53.2 251.4H191v3.6H53.2zM22.8 269.8c-2.3 0-4.1-1.9-4.1-4.2 0-2.3 1.9-4.2 4.1-4.2s4.1 1.9 4.1 4.2c.1 2.4-1.8 4.2-4.1 4.2zM0 263.9h20.5v3.6H0zM22.8 190.9c-2.3 0-4.1-1.9-4.1-4.2s1.9-4.2 4.1-4.2 4.1 1.9 4.1 4.2-1.8 4.2-4.1 4.2zM0 184.9h20.5v3.6H0zM22.8 112c-2.3 0-4.1-1.9-4.1-4.2 0-2.3 1.9-4.2 4.1-4.2s4.1 1.9 4.1 4.2c.1 2.3-1.8 4.2-4.1 4.2zM0 106h20.5v3.6H0zM22.8 33c-2.3 0-4.1-1.9-4.1-4.2 0-2.3 1.9-4.2 4.1-4.2s4.1 1.9 4.1 4.2c.1 2.4-1.8 4.2-4.1 4.2zM0 27.1h20.5v3.6H0zM22.8 72.5c-2.3 0-4.1-1.9-4.1-4.2 0-2.3 1.9-4.2 4.1-4.2s4.1 1.9 4.1 4.2c.1 2.3-1.8 4.2-4.1 4.2zM0 66.5h20.5v3.6H0zM22.8 151.4c-2.3 0-4.1-1.9-4.1-4.2s1.9-4.2 4.1-4.2 4.1 1.9 4.1 4.2c.1 2.4-1.8 4.2-4.1 4.2zM0 145.5h20.5v3.6H0zM22.8 230.4c-2.3 0-4.1-1.9-4.1-4.2 0-2.3 1.9-4.2 4.1-4.2s4.1 1.9 4.1 4.2c0 2.3-1.8 4.2-4.1 4.2zM0 224.4h20.5v3.6H0zM235.4 289.1v-205h18.1v205h-18.1zm3.5-3.6h11V87.7h-11v197.8zM256.4 151.9v-43.8h-17.8v-3.6H260v47.4zM237.5 152.4h13.6v3.6h-13.6zM240 287.7h8.8v5.2H240z"/><path opacity=".1" fill="#4D4C46" enable-background="new" d="M238.7 86.5h5.8v201.3h-5.8zM9.1 1.3h9.6v290.9H9.1z"/><path fill="#4D4C46" d="M169.4 1.8l4.4-.5 46.8 47-2.5 2.5zM182.9 53.2c-8.5 0-15.3-6.9-15.3-15.4V1.3h3.5v36.5c0 6.5 5.3 11.9 11.8 11.9h37l-.1 3.6-36.9-.1z"/><path opacity=".1" fill="#4D4C46" enable-background="new" d="M172.2 1.5h34.7s13 3 13 17.2v32.1L171.1 1.3l1.1.2z"/></svg>