<svg xmlns="http://www.w3.org/2000/svg" width="36" height="36" viewBox="0 0 36 36"><g fill="#ED1F24"><path d="M18 35.5c-3.5 0-5.8-.4-5.9-.5-.5-.1-.8-.5-.7-1 0-.1.8-6.9-1.8-14.3-2.7-7.7-.3-15-.2-15.3.1-.4.5-.6.9-.6H26c.4 0 .7.2.9.6.1.3 2.5 7.6-.2 15.3-2.6 7.4-1.8 14.2-1.8 14.3.1.5-.3.9-.8 1-2.1.3-4.1.5-6.1.5zm-4.8-2.1c.9.1 2.7.3 4.8.3 1.6 0 3.2-.1 4.8-.3-.1-2.1-.2-7.9 2-14.2 2.1-5.9.9-11.6.4-13.5H10.9c-.5 1.9-1.7 7.6.4 13.5 2.1 6.3 2.1 12 1.9 14.2zM26.2 9.5H9.5c-.5 0-.9-.4-.9-.9s.4-.9.9-.9h16.7c.5 0 .9.4.9.9s-.4.9-.9.9zM25.7 5.7c-.5 0-.9-.4-.9-.9V3.6c0-.4-.3-.7-.7-.7H15c-.2 0-.5-.1-.6-.3-.3.1-.7 0-.9-.3 0 0-.1-.1-.2-.1-.2 0-.2.1-.3.2-.1.4-.4.6-.8.6h-.5c-.4 0-.7.3-.7.7v1.2c0 .5-.4.9-.9.9s-.8-.5-.8-1V3.6c0-1.4 1.1-2.5 2.5-2.5.4-.4.9-.6 1.5-.6.4 0 .8.1 1.1.3.4 0 .7.1 1 .3h8.7c1.4 0 2.5 1.1 2.5 2.5v1.2c.1.5-.4.9-.9.9zM23.2 32.6H12.8c-.5 0-.9-.4-.9-.9s.4-.9.9-.9h10.3c.5 0 .9.4.9.9s-.3.9-.8.9zM16 29.4c-.8 0-1.5-.7-1.5-1.5s.7-1.5 1.5-1.5 1.5.7 1.5 1.5-.7 1.5-1.5 1.5zm0-1.8c-.2 0-.4.2-.4.4s.2.4.4.4.4-.2.4-.4c-.1-.3-.2-.4-.4-.4zM20.5 25.8c-.6 0-1.1-.5-1.1-1.1 0-.6.5-1.1 1.1-1.1s1.1.5 1.1 1.1c0 .6-.5 1.1-1.1 1.1zm0-1.8c-.4 0-.7.3-.7.7 0 .4.3.7.7.7s.7-.3.7-.7c0-.4-.3-.7-.7-.7z"/></g></svg>