<svg xmlns="http://www.w3.org/2000/svg" width="36" height="36" viewBox="0 0 36 36"><g fill="#ED1F24"><path d="M21.4 29.5H5.7c-.2 0-.5-.1-.6-.3-.1-.2-.2-.4-.1-.7l.9-3.2V3.9c.4-1 1.3-1.7 2.5-1.7.3 0 .7.1 1 .2v-.3c.4-1 1.3-1.7 2.5-1.7 1.1 0 2 .6 2.4 1.6.3-.1.7-.2 1.1-.2 1.1 0 2.1.7 2.5 1.7v1.1c.3-.1.6-.2 1-.2 1.1 0 2.1.7 2.5 1.7v19.5l.9 2.9c.1.2 0 .5-.1.7-.3.2-.5.3-.8.3zM6.7 27.9h13.7l-.6-2.1V6.4c-.2-.4-.6-.5-1-.5s-.8.1-1 .5v6.7c0 .4-.3.8-.8.8s-.8-.3-.8-.8V3.9c-.2-.4-.6-.5-1-.5s-.8.1-1 .5v9.3c0 .4-.3.8-.8.8-.4 0-.8-.3-.8-.8V2.6c-.2-.4-.6-.5-1-.5-.3 0-.8.1-1 .5v10.6c0 .4-.3.8-.8.8-.4 0-.8-.3-.8-.8V4.3c-.2-.4-.6-.5-1-.5s-.8.1-1 .5v21.3l-.3 2.3zM11.4 29.5H5.7c-.2 0-.5-.1-.6-.3-.1-.2-.2-.4-.1-.7l.9-3.2v-5.2c0-.2.1-.4.2-.5l4.3-4.6.2-.2c1.2-.6 2.7-.3 3.6.7.6.7.8 1.5.7 2.4 0 .1-.1.2-.1.3-1.5 2.3-2.3 3.8-2.6 4.3v6.2c-.1.4-.4.8-.8.8zm-4.7-1.6h3.9v-5.6c0-.1 0-.2.1-.4 0-.1.9-1.6 2.7-4.4 0-.4-.1-.7-.3-1-.4-.5-1.1-.6-1.7-.4l-4 4.2v5.2l-.7 2.4zM30.3 35.5H15.8c-.2 0-.5-.1-.6-.3-.1-.2-.2-.4-.1-.7l.9-2.9v-2.9c0-.4.3-.8.8-.8s.8.3.8.8v3.2l-.7 2.1h12.4l-.6-2.1V10.3c-.2-.5-.7-.5-.8-.5-.1 0-.6 0-.8.5v11.2c0 .4-.3.8-.8.8-.4 0-.8-.3-.8-.8v-13c-.2-.5-.7-.5-.8-.5-.1 0-.6 0-.8.5v13c0 .4-.3.8-.8.8s-.8-.3-.8-.8V9.9c-.1-.2-.3-.4-.4-.4-.2-.1-.5-.1-.8 0-.4.2-.8 0-1-.4-.2-.4 0-.8.4-1 .6-.2 1.3-.2 1.9 0 .4-.9 1.2-1.5 2.3-1.5 1.1 0 2 .7 2.3 1.7v.2c.3-.1.5-.1.8-.1 1.1 0 2 .7 2.3 1.7V31.7l.9 2.9c.1.2 0 .5-.1.7-.1.1-.3.2-.6.2z"/></g></svg>