<svg xmlns="http://www.w3.org/2000/svg" width="36" height="36" viewBox="0 0 36 36"><g fill="#EC1E24"><path d="M23.037 35.5c-.306 0-.612-.117-.845-.35L.85 13.808c-.467-.466-.467-1.224 0-1.69.467-.467 1.223-.467 1.69 0L23.882 33.46c.467.466.467 1.224 0 1.69-.234.233-.54.35-.845.35zM28.67 29.866c-.305 0-.61-.117-.844-.35L6.484 8.176c-.467-.467-.467-1.225 0-1.69.467-.468 1.223-.468 1.69 0l21.34 21.34c.468.466.468 1.224 0 1.69-.232.233-.537.35-.843.35zM34.305 24.232c-.306 0-.612-.117-.845-.35L12.118 2.54c-.467-.466-.467-1.224 0-1.69.467-.467 1.223-.467 1.69 0L35.15 22.192c.467.466.467 1.224 0 1.69-.234.233-.54.35-.845.35zM12.963 35.5c-.306 0-.612-.117-.845-.35-.467-.466-.467-1.224 0-1.69L33.46 12.118c.467-.467 1.223-.467 1.69 0 .467.466.467 1.224 0 1.69L13.808 35.15c-.233.233-.54.35-.845.35zM7.33 29.866c-.306 0-.612-.117-.845-.35-.467-.466-.467-1.224 0-1.69l21.34-21.342c.468-.467 1.224-.467 1.69 0 .468.466.468 1.224 0 1.69L8.176 29.516c-.234.233-.54.35-.845.35zM1.695 24.232c-.306 0-.612-.117-.845-.35-.467-.466-.467-1.224 0-1.69L22.192.85c.467-.467 1.223-.467 1.69 0 .467.466.467 1.224 0 1.69L2.54 23.882c-.233.233-.54.35-.845.35z"/></g></svg>