<svg xmlns="http://www.w3.org/2000/svg" width="64" height="104" viewBox="0 0 64 104"><path opacity=".1" fill="#4D4C46" d="M29.8 100.8s1.4-21.1-3.2-44.3c-4.5-22.6-.3-44.3-.3-44.3H13.4s-9.1 21.7.8 44.3c10.2 23.2 7.1 44.3 7.1 44.3h8.5z"/><path fill="#fff" d="M32 103.5c-10.3 0-17.3-1.3-17.6-1.3-.7-.1-1.2-.8-1.2-1.6 0-.2 2.3-21.1-5.6-43.6-8-22.8-.9-44.3-.6-45.2.2-.6.7-1 1.3-1h47.2c.6 0 1.2.4 1.3 1 .3.9 7.4 22.4-.6 45.2-7.9 22.6-5.6 43.4-5.6 43.6.1.8-.4 1.5-1.2 1.6-5.4.9-11.3 1.3-17.4 1.3zm-15.8-3.9c2.5.4 8.3 1.1 15.8 1.1 5.4 0 10.7-.4 15.8-1.1-.4-5.1-1.2-23.4 5.9-43.5 6.7-19.2 2.1-38 .9-42.4H9.4C8.2 18 3.6 36.8 10.3 56c7.1 20.2 6.3 38.5 5.9 43.6zM52.1 37.4h-6.6V36c-.3-11.2-1.9-21.5-3.4-22.5l.8-2.7c4 1.2 5.1 14.8 5.4 23.7h1.4c.9-7.6-3.1-21.8-3.2-22l2.7-.8c.2.7 4.7 16.6 3 24.5l-.1 1.2zM6.4 22.1h52v2.8h-52zM56.8 12.2H54V8.7c0-1.9-1.5-3.4-3.4-3.4H22.2l-.4-.7c0-.1-.2-.3-.5-.2l-1 .6-.8-.9c-1-1.1-2.9-.9-3.6.4l-.4.8h-2.3c-1.9 0-3.4 1.5-3.4 3.4v3.5H7V8.7c0-3.4 2.8-6.2 6.2-6.2h.7c.9-1.2 2.4-2 4-2 1.1 0 2.2.4 3.1 1 1-.2 2.1.2 2.9.9h26.9c3.4 0 6.2 2.8 6.2 6.2v3.6zM14.4 93.4h35.2v2.8H14.4zM35.8 41c.3 0 .8.2.9.5l3.5 6c.2.3.2.8 0 1.1l-3.5 6c-.2.3-.6.5-.9.5h-7c-.3 0-.8-.2-.9-.5l-3.5-6c-.2-.3-.2-.8 0-1.1l3.5-6c.2-.3.6-.5.9-.5h7m-3.4 10.3c1.8 0 3.2-1.4 3.2-3.2 0-1.8-1.4-3.2-3.2-3.2-1.8 0-3.2 1.4-3.2 3.2 0 1.7 1.4 3.2 3.2 3.2m3.4-13.1h-7c-1.4 0-2.7.8-3.4 2l-3.5 6c-.7 1.2-.7 2.7 0 3.9l3.5 6c.7 1.2 2 2 3.4 2h7c1.4 0 2.7-.8 3.4-2l3.5-6c.7-1.2.7-2.7 0-3.9l-3.5-6c-.6-1.2-2-2-3.4-2zm-3.4 10.2c-.2 0-.4-.2-.4-.4s.2-.4.4-.4.4.2.4.4c-.1.3-.2.4-.4.4zM21.1 90.7c-1.7 0-3.1-1.4-3.1-3.1s1.4-3.1 3.1-3.1 3.1 1.4 3.1 3.1-1.4 3.1-3.1 3.1zm0-3.3c-.1 0-.2.1-.2.2 0 .3.5.3.5 0-.1-.1-.2-.2-.3-.2zM40.2 81.1c-1.2 0-2.1-1-2.1-2.1 0-1.2 1-2.1 2.1-2.1 1.2 0 2.1 1 2.1 2.1.1 1.1-.9 2.1-2.1 2.1zm0-2.8c-.4 0-.7.3-.7.7 0 .4.3.7.7.7.4 0 .7-.3.7-.7.1-.4-.3-.7-.7-.7z"/></svg>