<svg xmlns="http://www.w3.org/2000/svg" width="44" height="44" viewBox="10.75 8 44 44" enable-background="new 10.75 8 44 44"><path fill="#F6364D" d="M34.265 39.937v-9.383h2.88s.297-1.7.37-3.546h-3.25V24.57s.442-.813.96-.813h2.363v-3.694H34.41c-4.506 0-4.432 3.546-4.432 4.064v2.88h-2.07v3.547h2.07v9.383h4.287zM32.75 10.716c10.64 0 19.284 8.644 19.284 19.284S43.39 49.284 32.75 49.284c-10.64.073-19.284-8.57-19.284-19.284 0-10.64 8.645-19.284 19.284-19.284m0-2.216c-11.82 0-21.5 9.68-21.5 21.5s9.68 21.5 21.5 21.5c11.895 0 21.5-9.68 21.5-21.5S44.645 8.5 32.75 8.5z"/></svg>