<svg xmlns="http://www.w3.org/2000/svg" width="44" height="44" viewBox="10.75 8 44 44" enable-background="new 10.75 8 44 44"><path fill="#F6364D" d="M40.766 25.863v.517c0 5.54-4.21 11.97-11.97 11.97-2.363 0-4.58-.666-6.427-1.922.295.074.664.074 1.033.074 1.995 0 3.768-.665 5.246-1.773-1.848 0-3.4-1.257-3.917-2.956.222.074.517.074.813.074.37 0 .74-.074 1.108-.148-1.92-.37-3.4-2.07-3.4-4.137v-.074c.592.295 1.183.516 1.922.516-1.108-.74-1.847-2.07-1.847-3.473 0-.74.22-1.478.59-2.143 2.07 2.586 5.172 4.21 8.718 4.433-.074-.296-.074-.665-.074-.96 0-2.364 1.92-4.21 4.21-4.21 1.183 0 2.29.516 3.104 1.33.96-.223 1.847-.518 2.66-1.035-.296.96-.96 1.847-1.847 2.364.888-.074 1.7-.296 2.44-.665-.886.886-1.55 1.624-2.364 2.216zM32.75 10.716c10.64 0 19.284 8.644 19.284 19.284S43.39 49.284 32.75 49.284 13.466 40.64 13.466 30 22.11 10.716 32.75 10.716m0-2.216c-11.895 0-21.5 9.605-21.5 21.5s9.68 21.5 21.5 21.5c11.895 0 21.5-9.68 21.5-21.5 0-11.895-9.605-21.5-21.5-21.5z"/></svg>