<svg xmlns="http://www.w3.org/2000/svg" width="36" height="36" viewBox="0 0 36 36"><g fill="#EE3A4F"><path d="M32.987 29.887H3.013c-1.11 0-2.013-.903-2.013-2.014V7.33c0-1.11.903-2.015 2.013-2.015h29.973c1.11 0 2.013.903 2.013 2.014v20.543c0 1.11-.903 2.014-2.013 2.014zM3.013 6.96c-.203 0-.37.165-.37.37v20.543c0 .203.166.37.37.37h29.973c.203 0 .37-.166.37-.37V7.33c0-.204-.166-.37-.37-.37H3.013zM34.178 10.937H1.822c-.454 0-.822-.368-.822-.822 0-.455.368-.823.822-.823h32.355c.455 0 .823.368.823.823 0 .454-.368.822-.822.822z"/><circle cx="3.981" cy="8.135" r=".323"/><circle cx="4.924" cy="8.135" r=".323"/><circle cx="5.817" cy="8.135" r=".323"/><path d="M28.272 29.887H6.735c-.454 0-.822-.368-.822-.822v-14.64c0-.454.368-.822.822-.822h21.537c.454 0 .822.368.822.822v14.64c0 .454-.367.822-.822.822zM7.558 28.242H27.45V15.247H7.558v12.995zM25.627 19.19H9.613c-.454 0-.822-.368-.822-.822 0-.454.37-.822.823-.822h16.014c.454 0 .822.368.822.822 0 .454-.37.822-.823.822zM25.627 23.028H9.613c-.454 0-.822-.368-.822-.822s.37-.822.823-.822h16.014c.454 0 .822.368.822.822s-.37.822-.823.822zM25.627 26.41H9.613c-.454 0-.822-.37-.822-.823 0-.454.37-.822.823-.822h16.014c.454 0 .822.368.822.822 0 .453-.37.822-.823.822z"/></g></svg>