<svg xmlns="http://www.w3.org/2000/svg" width="36" height="36" viewBox="0 0 36 36"><path fill="#FE0101" d="M17.972 27.226c-5.055 0-9.167-4.112-9.167-9.167s4.112-9.168 9.167-9.168c5.054 0 9.167 4.112 9.167 9.167s-4.114 9.166-9.168 9.166zm0-16.394c-3.985 0-7.227 3.242-7.227 7.227s3.242 7.226 7.227 7.226c3.985 0 7.227-3.242 7.227-7.227s-3.243-7.228-7.228-7.228zM17.972 27.226c-5.055 0-9.167-4.112-9.167-9.167s4.112-9.168 9.167-9.168c5.054 0 9.167 4.112 9.167 9.167s-4.114 9.166-9.168 9.166zm0-16.394c-3.985 0-7.227 3.242-7.227 7.227s3.242 7.226 7.227 7.226c3.985 0 7.227-3.242 7.227-7.227s-3.243-7.228-7.228-7.228z"/><g fill="#FE0101"><path d="M17.996 27.223c-3.767 0-7.108-2.26-8.51-5.756-1.88-4.692.405-10.04 5.096-11.92 1.093-.44 2.24-.66 3.41-.66 3.766 0 7.107 2.26 8.51 5.756 1.88 4.692-.405 10.04-5.097 11.92-1.093.438-2.24.66-3.41.66zm-.005-16.397c-.92 0-1.823.175-2.686.52-3.698 1.484-5.5 5.7-4.018 9.4 1.106 2.756 3.74 4.538 6.71 4.538.92 0 1.825-.175 2.687-.522 1.792-.718 3.197-2.09 3.956-3.866s.78-3.74.062-5.53c-1.106-2.758-3.74-4.54-6.71-4.54zM23.315 12.793c-.202 0-.405-.063-.58-.193L9.88 2.998c-.43-.32-.52-.928-.198-1.357.32-.43.928-.516 1.357-.196l12.856 9.6c.43.32.517.93.197 1.358-.19.256-.482.39-.778.39z"/></g><path fill="#FE0101" d="M1.47 13.157c-.475 0-.89-.348-.96-.83-.076-.53.29-1.023.82-1.1l15.882-2.302c.532-.08 1.022.29 1.1.82.076.53-.29 1.022-.82 1.1l-15.883 2.3c-.048.008-.095.012-.14.012zM2.16 26.56c-.202 0-.405-.063-.58-.193-.43-.32-.517-.928-.197-1.357l9.6-12.858c.32-.43.928-.517 1.358-.197.43.32.518.928.198 1.357l-9.6 12.858c-.19.255-.483.39-.778.39zM12.124 35.548c-.474 0-.888-.348-.958-.83l-2.302-15.88c-.077-.53.29-1.023.82-1.1.53-.08 1.022.29 1.1.82l2.3 15.88c.078.53-.29 1.023-.82 1.1-.047.007-.093.01-.14.01zM25.425 34.773c-.202 0-.405-.063-.58-.193l-12.857-9.6c-.43-.322-.517-.93-.197-1.358.32-.43.928-.518 1.358-.197l12.857 9.6c.43.322.517.93.197 1.358-.19.255-.482.39-.777.39zM18.648 27.226c-.474 0-.888-.348-.958-.83-.077-.53.29-1.023.82-1.1l15.882-2.302c.528-.08 1.022.29 1.1.82.076.53-.29 1.023-.822 1.1l-15.88 2.302c-.048.007-.096.01-.142.01zM24.24 24.387c-.2 0-.404-.063-.58-.193-.428-.32-.516-.928-.196-1.357L33.066 9.98c.32-.43.928-.517 1.357-.197.43.32.517.928.197 1.357l-9.602 12.857c-.19.256-.482.39-.777.39zM26.12 18.273c-.475 0-.89-.348-.96-.83L22.86 1.56c-.077-.53.29-1.02.82-1.098.53-.08 1.023.29 1.1.82l2.303 15.88c.078.53-.29 1.023-.82 1.1-.047.008-.095.01-.14.01z"/><g fill="#FE0101"><path d="M17.996 27.223c-3.767 0-7.108-2.26-8.51-5.756-1.88-4.692.405-10.04 5.096-11.92 1.093-.44 2.24-.66 3.41-.66 3.766 0 7.107 2.26 8.51 5.756 1.88 4.692-.405 10.04-5.097 11.92-1.093.438-2.24.66-3.41.66zm-.005-16.397c-.92 0-1.823.175-2.686.52-3.698 1.484-5.5 5.7-4.018 9.4 1.106 2.756 3.74 4.538 6.71 4.538.92 0 1.825-.175 2.687-.522 1.792-.718 3.197-2.09 3.956-3.866s.78-3.74.062-5.53c-1.106-2.758-3.74-4.54-6.71-4.54zM23.315 12.793c-.202 0-.405-.063-.58-.193L9.88 2.998c-.43-.32-.52-.928-.198-1.357.32-.43.928-.516 1.357-.196l12.856 9.6c.43.32.517.93.197 1.358-.19.256-.482.39-.778.39z"/></g><path fill="#FE0101" d="M1.47 13.157c-.475 0-.89-.348-.96-.83-.076-.53.29-1.023.82-1.1l15.882-2.302c.532-.08 1.022.29 1.1.82.076.53-.29 1.022-.82 1.1l-15.883 2.3c-.048.008-.095.012-.14.012zM2.16 26.56c-.202 0-.405-.063-.58-.193-.43-.32-.517-.928-.197-1.357l9.6-12.858c.32-.43.928-.517 1.358-.197.43.32.518.928.198 1.357l-9.6 12.858c-.19.255-.483.39-.778.39zM12.124 35.548c-.474 0-.888-.348-.958-.83l-2.302-15.88c-.077-.53.29-1.023.82-1.1.53-.08 1.022.29 1.1.82l2.3 15.88c.078.53-.29 1.023-.82 1.1-.047.007-.093.01-.14.01zM25.425 34.773c-.202 0-.405-.063-.58-.193l-12.857-9.6c-.43-.322-.517-.93-.197-1.358.32-.43.928-.518 1.358-.197l12.857 9.6c.43.322.517.93.197 1.358-.19.255-.482.39-.777.39zM18.648 27.226c-.474 0-.888-.348-.958-.83-.077-.53.29-1.023.82-1.1l15.882-2.302c.528-.08 1.022.29 1.1.82.076.53-.29 1.023-.822 1.1l-15.88 2.302c-.048.007-.096.01-.142.01zM24.24 24.387c-.2 0-.404-.063-.58-.193-.428-.32-.516-.928-.196-1.357L33.066 9.98c.32-.43.928-.517 1.357-.197.43.32.517.928.197 1.357l-9.602 12.857c-.19.256-.482.39-.777.39zM26.12 18.273c-.475 0-.89-.348-.96-.83L22.86 1.56c-.077-.53.29-1.02.82-1.098.53-.08 1.023.29 1.1.82l2.303 15.88c.078.53-.29 1.023-.82 1.1-.047.008-.095.01-.14.01z"/></svg>