<svg xmlns="http://www.w3.org/2000/svg" width="102.2" height="103" viewBox="0 0 102.2 103"><g fill="#fff"><path d="M74.6 56.1c-.6 0-1.2-.5-1.2-1.2V28c0-.6.5-1.2 1.2-1.2.6 0 1.2.5 1.2 1.2v26.9c0 .6-.6 1.2-1.2 1.2zM87.6 102.5H54.4c-.3 0-.6-.1-.8-.3l-2.9-2.9-2.9 2.9c-.2.2-.5.3-.8.3h-6.1c-.4 0-.7-.2-.9-.4-.2-.3-.3-.6-.2-1l2.6-11.5v-5.9h2.3V90l-2.3 10.2h4.2l3.4-3.4c.4-.4 1.2-.4 1.6 0l3.4 3.4h31.3L83.9 90V28.2c-.7-1.8-2.6-2.5-4-2.5-1.5 0-3.3.7-4 2.5v26.7c0 .6-.5 1.2-1.2 1.2-.6 0-1.2-.5-1.2-1.2v-32c-.7-1.8-2.6-2.5-4-2.5-1.5 0-3.3.7-4 2.5v32c0 .6-.5 1.2-1.2 1.2-.6 0-1.2-.5-1.2-1.2V27c-.6-1.4-1.8-2.2-3.7-2.4l.3-2.3c1.3.2 2.5.6 3.4 1.2v-.7c0-.1 0-.3.1-.4.9-2.6 3.4-4.2 6.3-4.2s5.4 1.7 6.3 4.2c0 .1.1.3.1.4v1.9c1.1-.8 2.5-1.2 4-1.2 2.9 0 5.4 1.7 6.3 4.2 0 .1.1.3.1.4v61.6l2.6 11.5c.1.3 0 .7-.2 1-.4.1-.7.3-1.1.3z"/></g><path fill="#fff" d="M53.6 102.2l-2.9-2.9-2.9 2.9-1.6-1.6 3.7-3.7c.4-.4 1.2-.4 1.6 0l3.7 3.7-1.6 1.6zM43.5 88.5H85v2.3H43.5zM59 57.5h25.9v2.3H59zM59 68.3h25.8v2.3H59z"/><path opacity=".1" fill="#4D4C46" d="M74.6 25.5h4v33.2h-4zM64.2 20.5h4v38.2h-4z"/><path fill="#fff" d="M61.3 84.9h-6.1c-.3 0-.6-.1-.8-.3l-2.9-2.9-2.9 2.9c-.2.2-.5.3-.8.3H14.5c-.4 0-.7-.2-.9-.4-.2-.3-.3-.6-.2-1L16 71.9V10.4c0-.1 0-.3.1-.4.9-2.6 3.4-4.2 6.3-4.2 1.5 0 2.9.5 4 1.2V5.1c0-.1 0-.3.1-.4.9-2.6 3.4-4.2 6.3-4.2s5.4 1.7 6.3 4.2c0 .1.1.3.1.4v.7c1.1-.8 2.5-1.2 4-1.2 2.9 0 5.4 1.7 6.3 4.2 0 .1.1.3.1.4v4.2c1.1-.8 2.5-1.2 4-1.2 2.9 0 5.4 1.7 6.3 4.2 0 .1.1.3.1.4v55.3l2.6 11.5c.1.3 0 .7-.2 1-.4.1-.7.3-1.1.3zm-5.6-2.3h4.2l-2.3-10.2V16.9c-.7-1.8-2.6-2.5-4-2.5-1.5 0-3.3.7-4 2.5v20.4c0 .6-.5 1.2-1.2 1.2-.6 0-1.2-.5-1.2-1.2V9.4c-.7-1.8-2.6-2.5-4-2.5-1.5 0-3.3.7-4 2.5v27.9h-2.3v-32c-.7-1.8-2.6-2.5-4-2.5s-3.3.7-4 2.5v32c0 .6-.5 1.2-1.2 1.2s-1.2-.5-1.2-1.2V10.6c-.7-1.8-2.6-2.5-4-2.5-1.5 0-3.3.7-4 2.5v61.8L16 82.6h31.3l3.4-3.4c.5-.5 1.2-.5 1.6 0l3.4 3.4zM54.4 84.5l-2.9-2.9-2.9 2.9-1.6-1.6 3.7-3.7c.5-.5 1.2-.5 1.6 0l3.7 3.7-1.6 1.6zM15.7 84l-2.3-.5L16 71.9V58c0-.3.1-.6.3-.8l12.8-13.6c.1-.1.2-.2.3-.2 2.6-1.4 5.7-1.2 8.1.5 2.4 1.7 3.6 4.5 3.2 7.4 0 .2-.1.3-.2.4l-8 13.2v1.7c0 2.3 1.9 4.2 4.2 4.2h21.9v2.3H36.8c-3.6 0-6.5-2.9-6.5-6.5v-2c0-.2.1-.4.2-.6l8-13.3c.2-2-.6-3.8-2.3-5-1.7-1.2-3.7-1.3-5.5-.5L18.3 58.5v13.9L15.7 84zM17.2 39.9h41.5v2.3H17.2zM39.2 50.7h19.5V53H39.2zM17.4 50.7H23V53h-5.6z"/><path opacity=".1" fill="#4D4C46" d="M23.6 8.4h4v33.2h-4zM34 2.6h4v39h-4zM44.4 6.6h4v35h-4zM54.2 13.8h4v27.8h-4z"/><path fill="#fff" d="M28.3 71c-.2 0-.4-.1-.6-.2-.5-.3-.7-1-.4-1.6l10.9-18.1c.3-.5 1-.7 1.6-.4.5.3.7 1 .4 1.6L29.3 70.5c-.2.3-.6.5-1 .5zM69.3 84.3c.1.2.4.4.7.4h5c.2 0 .5-.2.7-.4l2.5-4.3c.1-.2.1-.6 0-.8l-2.5-4.3c-.1-.2-.4-.4-.7-.4h-5c-.2 0-.5.2-.7.4l-2.5 4.3c-.1.2-.1.6 0 .8l2.5 4.3zm3.2-7c1.3 0 2.3 1 2.3 2.3s-1 2.3-2.3 2.3c-1.3 0-2.3-1-2.3-2.3s1-2.3 2.3-2.3z"/></svg>