<svg xmlns="http://www.w3.org/2000/svg" width="36" height="36" viewBox="0 0 36 36"><g fill="#EC1E24"><path d="M33.904 29.952H18.74c-.88 0-1.596-.716-1.596-1.596V7.644c0-.88.716-1.596 1.596-1.596h15.164c.88 0 1.596.716 1.596 1.596v20.712c0 .88-.716 1.596-1.596 1.596zM18.856 28.24h14.93V7.76h-14.93v20.48zM17.26 29.952H2.096c-.88 0-1.596-.716-1.596-1.596V7.644c0-.88.716-1.596 1.596-1.596H17.26c.88 0 1.596.716 1.596 1.596v20.712c0 .88-.716 1.596-1.596 1.596zM2.212 28.24h14.93V7.76H2.213v20.48zM14.34 12.76H5.016c-.473 0-.856-.384-.856-.857s.383-.856.856-.856h9.323c.472 0 .855.383.855.856s-.382.856-.855.856zM14.34 18.467H5.016c-.473 0-.856-.383-.856-.856s.383-.855.856-.855h9.323c.472 0 .855.383.855.856s-.382.857-.855.857zM14.34 24.175H5.016c-.473 0-.856-.383-.856-.856s.383-.857.856-.857h9.323c.472 0 .855.383.855.856s-.382.855-.855.855zM30.894 12.76H21.57c-.473 0-.856-.384-.856-.857s.383-.856.856-.856h9.323c.473 0 .856.383.856.856s-.383.856-.856.856zM30.894 18.467H21.57c-.473 0-.856-.383-.856-.856s.383-.855.856-.855h9.323c.473 0 .856.383.856.856s-.383.857-.856.857zM30.894 24.175H21.57c-.473 0-.856-.383-.856-.856s.383-.857.856-.857h9.323c.473 0 .856.383.856.856s-.383.855-.856.855z"/></g></svg>