<svg xmlns="http://www.w3.org/2000/svg" viewBox="0 0 124 124" enable-background="new 0 0 124 124"><path fill="#fff" d="M62 123C28.363 123 1 95.635 1 62S28.364 1 62 1s61 27.365 61 61-27.366 61-61 61zM62 4.432C30.255 4.432 4.43 30.257 4.43 62S30.256 119.568 62 119.568 119.567 93.743 119.567 62 93.742 4.432 61.998 4.432zM102.988 106.402h-3.432V51.225H23.832v54.637H20.4v-58.07h82.588zM102.988 106.402h-3.432V41.34H34.13v8.17h-3.433V37.906h72.29zM37.132 62.77H61.03v3.432H37.132zM37.132 82.376H61.03v3.432H37.132zM37.132 72.572H61.03v3.432H37.132zM37.132 101.98H88.83v3.433H37.132zM37.132 92.178H88.83v3.432H37.132zM88.187 85.808h-19.95V62.77h19.95v23.038zM71.67 82.376h13.084V66.202H71.67v16.174z"/></svg>