<svg xmlns="http://www.w3.org/2000/svg" viewBox="0 0 40 40" enable-background="new 0 0 40 40"><g fill="#EF3A50"><path d="M20.2 39.2c-10.5 0-19-8.5-19-19s8.5-19 19-19 19 8.5 19 19-8.5 19-19 19zm0-36c-9.4 0-17 7.6-17 17s7.6 17 17 17 17-7.6 17-17-7.6-17-17-17zM24.4 17.8c-1.6 0-2.3.9-2.7 1.5V18h-3v9.1h3V22c0-.3 0-.5.1-.7.2-.5.7-1.1 1.6-1.1 1.1 0 1.5.8 1.5 2.1v4.9h3V22c0-2.9-1.5-4.2-3.5-4.2zM15.5 13.6c-1 0-1.7.7-1.7 1.6 0 .9.7 1.6 1.7 1.6 1.1 0 1.7-.7 1.7-1.6-.1-.9-.7-1.6-1.7-1.6zM13.9 18h3v9.1h-3z"/></g></svg>