<svg xmlns="http://www.w3.org/2000/svg" width="36" height="36" viewBox="0 0 36 36"><path fill="#EC1E24" d="M33.215 35.5H2.785C1.525 35.5.5 34.475.5 33.215V2.785C.5 1.525 1.525.5 2.785.5h30.43c1.26 0 2.284 1.025 2.284 2.285v30.43c0 1.26-1.025 2.285-2.285 2.285zM2.785 2.46c-.18 0-.326.145-.326.325v30.43c0 .18.145.326.325.326h30.43c.18 0 .325-.145.325-.325V2.785c0-.18-.146-.326-.326-.326H2.784zM19.325 9.294c.418 0 .757.34.757.757v5.868h5.867c.417 0 .756.34.756.757v2.65c0 .418-.34.757-.757.757H20.08v5.867c0 .417-.34.756-.757.756h-2.65c-.418 0-.757-.34-.757-.757V20.08H10.05c-.417 0-.756-.34-.756-.757v-2.65c0-.418.34-.757.757-.757h5.868V10.05c0-.417.34-.756.757-.756h2.65m0-1.96h-2.65c-1.498 0-2.716 1.22-2.716 2.717v3.91h-3.91c-1.497 0-2.715 1.217-2.715 2.715v2.65c0 1.498 1.218 2.716 2.716 2.716h3.91v3.91c0 1.497 1.217 2.715 2.715 2.715h2.65c1.498 0 2.716-1.218 2.716-2.716v-3.91h3.91c1.497 0 2.715-1.217 2.715-2.715v-2.65c0-1.498-1.218-2.716-2.716-2.716h-3.91v-3.91c0-1.497-1.218-2.715-2.715-2.715z"/></svg>