<svg xmlns="http://www.w3.org/2000/svg" width="36" height="36" viewBox="0 0 36 36"><g fill="#FE0101"><path d="M13.625 31.125C6.388 31.125.5 25.237.5 18S6.388 4.875 13.625 4.875 26.75 10.763 26.75 18s-5.888 13.125-13.125 13.125zm0-24.418C7.397 6.707 2.33 11.773 2.33 18c0 6.227 5.067 11.293 11.295 11.293 6.227 0 11.293-5.066 11.293-11.293 0-6.227-5.066-11.293-11.293-11.293zM13.625 26.648c-4.77 0-8.65-3.88-8.65-8.648 0-4.77 3.88-8.648 8.65-8.648 4.768 0 8.648 3.88 8.648 8.648s-3.88 8.648-8.648 8.648zm0-15.465c-3.76 0-6.817 3.058-6.817 6.817s3.058 6.817 6.817 6.817c3.76 0 6.817-3.058 6.817-6.817s-3.058-6.817-6.817-6.817zM33.364 22.782h-7.667c-.506 0-.916-.41-.916-.916s.41-.916.917-.916h7.667c.168 0 .305-.137.305-.305V17.38c0-.167-.138-.304-.306-.304h-7.667c-.506 0-.916-.41-.916-.916s.41-.916.917-.916h7.667c1.178 0 2.137.96 2.137 2.137v3.265c0 1.18-.958 2.137-2.136 2.137z"/></g></svg>