<svg xmlns="http://www.w3.org/2000/svg" width="102.2" height="103" viewBox="0 0 102.2 103"><g fill="#fff"><path d="M100.3 27.2H1.8c-.7 0-1.3-.6-1.3-1.3V8.5c0-.7.6-1.3 1.3-1.3h18c.7 0 1.3.6 1.3 1.3v4c0 .5-.2.9-.6 1.1-.9.6-1.4 1.5-1.4 2.6 0 1.7 1.4 3 3 3s3-1.4 3-3c0-1-.5-2-1.4-2.6-.4-.2-.6-.7-.6-1.1v-4c0-.7.6-1.3 1.3-1.3h53.3c.7 0 1.3.6 1.3 1.3v4c0 .5-.2.9-.6 1.1-.9.6-1.4 1.5-1.4 2.6 0 1.7 1.4 3 3 3s3-1.4 3-3c0-1-.5-2-1.4-2.6-.4-.2-.6-.7-.6-1.1v-4c0-.7.6-1.3 1.3-1.3H100c.7 0 1.3.6 1.3 1.3v17.4c.4.7-.2 1.3-1 1.3zM3.2 24.5H99V9.8H83.9v2c1.3 1.1 2 2.7 2 4.4 0 3.2-2.6 5.7-5.7 5.7s-5.7-2.6-5.7-5.7c0-1.7.7-3.3 2-4.4v-2H25.9v2c1.3 1.1 2 2.7 2 4.4 0 3.2-2.6 5.7-5.7 5.7s-5.7-2.6-5.7-5.7c0-1.7.7-3.3 2-4.4v-2H3.2v14.7zM22.2 21.9c-3.2 0-5.7-2.6-5.7-5.7 0-2 1-3.8 2.7-4.8.4-.3.9-.3 1.4 0 .4.2.7.7.7 1.2v1.2h2v-1.2c0-.5.3-.9.7-1.2.4-.2 1-.2 1.4 0 1.7 1.1 2.7 2.9 2.7 4.8-.2 3.1-2.7 5.7-5.9 5.7zm-3-5.7c0 1.7 1.4 3 3 3 1.7 0 3-1.3 3-3-.2.1-.4.2-.7.2h-4.7c-.2 0-.4-.1-.6-.2zM80.2 21.9c-3.2 0-5.7-2.6-5.7-5.7 0-2 1-3.8 2.7-4.8.4-.3.9-.3 1.4 0 .4.2.7.7.7 1.2v1.2h2v-1.2c0-.5.3-.9.7-1.2.4-.2 1-.2 1.4 0 1.7 1.1 2.7 2.9 2.7 4.8-.2 3.1-2.7 5.7-5.9 5.7zm-3-5.7c0 1.7 1.4 3 3 3 1.7 0 3-1.3 3-3-.2.1-.4.2-.7.2h-4.7c-.2 0-.4-.1-.6-.2zM25.9 8.5h-2.7V3.2h-2v5.3h-2.7V1.8c0-.7.6-1.3 1.3-1.3h4.7c.7 0 1.3.6 1.3 1.3v6.7zM18.5 8.5h2.7v4h-2.7zM23.2 8.5h2.7v4h-2.7zM24.6 16.4h-4.7c-.7 0-1.3-.6-1.3-1.3v-2.6h2.7v1.2h2v-1.2H26v2.6c-.1.7-.7 1.3-1.4 1.3zM83.9 8.5h-2.7V3.2h-2v5.3h-2.7V1.8c0-.7.6-1.3 1.3-1.3h4.7c.7 0 1.3.6 1.3 1.3v6.7zM76.5 8.5h2.7v4h-2.7zM81.2 8.5h2.7v4h-2.7zM82.6 16.4h-4.7c-.7 0-1.3-.6-1.3-1.3v-2.6h2.7v1.2h2v-1.2H84v2.6c-.1.7-.7 1.3-1.4 1.3z"/></g><g fill="#fff"><path d="M26.5 102.5H1.8c-.7 0-1.3-.6-1.3-1.3 0-.7.6-1.3 1.3-1.3h24.6c.7 0 1.3.6 1.3 1.3.1.7-.5 1.3-1.2 1.3zM26.5 48.7H1.8c-.7 0-1.3-.6-1.3-1.3V33.8c0-.6.3-1.1.9-1.3L8.1 30c.4-.1.7-.1 1.1.1l3.1 1.6 3.2-1.4c.4-.2.8-.1 1.1 0l3.1 1.6 3.2-1.4c.4-.2.8-.1 1.1 0l3.1 1.6c.5.2.7.7.7 1.2v14.1c0 .6-.6 1.3-1.3 1.3zM3.2 46h21.9V34l-1.8-.9-3.2 1.4c-.4.2-.8.1-1.1 0l-3.1-1.6-3.2 1.4c-.4.2-.8.1-1.1 0l-3.1-1.6-5.3 2V46zM26.5 66.6H1.8c-.7 0-1.3-.6-1.3-1.3v-18c0-.7.6-1.3 1.3-1.3h24.6c.7 0 1.3.6 1.3 1.3v17.9c.1.8-.5 1.4-1.2 1.4zM3.2 63.9h21.9V48.7H3.2v15.2zM26.5 84.5H1.8c-.7 0-1.3-.6-1.3-1.3V65.3c0-.7.6-1.3 1.3-1.3h24.6c.7 0 1.3.6 1.3 1.3v17.9c.1.7-.5 1.3-1.2 1.3zM3.2 81.9h21.9V66.6H3.2v15.3zM26.5 102.5H1.8c-.7 0-1.3-.6-1.3-1.3v-18c0-.7.6-1.3 1.3-1.3h24.6c.7 0 1.3.6 1.3 1.3v17.9c.1.8-.5 1.4-1.2 1.4zM3.2 99.8h21.9V84.5H3.2v15.3zM51.1 102.5H26.5c-.7 0-1.3-.6-1.3-1.3 0-.7.6-1.3 1.3-1.3h24.6c.7 0 1.3.6 1.3 1.3 0 .7-.6 1.3-1.3 1.3zM51.1 48.7H26.5c-.7 0-1.3-.6-1.3-1.3V33.2c0-.5.2-.9.6-1.1.4-.2.9-.3 1.3-.1l3.2-1.4c.4-.2.8-.1 1.1 0l3.1 1.6 3.2-1.4c.4-.2.8-.1 1.1 0l3.1 1.6L45 31c.4-.2.8-.1 1.1 0l3.1 1.6 1.3-.6c.4-.2.9-.1 1.3.1s.6.7.6 1.1v14c0 .8-.6 1.5-1.3 1.5zM27.8 46h21.9V35.3c-.4.1-.8.1-1.1 0l-3.1-1.6-3.2 1.4c-.4.2-.8.1-1.1 0l-3.1-1.6-3.1 1.4c-.4.2-.8.1-1.1 0l-3.1-1.6-2.9 1.3V46zM51.1 66.6H26.5c-.7 0-1.3-.6-1.3-1.3v-18c0-.7.6-1.3 1.3-1.3h24.6c.7 0 1.3.6 1.3 1.3v17.9c0 .8-.6 1.4-1.3 1.4zm-23.3-2.7h21.9V48.7H27.8v15.2zM51.1 84.5H26.5c-.7 0-1.3-.6-1.3-1.3V65.3c0-.7.6-1.3 1.3-1.3h24.6c.7 0 1.3.6 1.3 1.3v17.9c0 .7-.6 1.3-1.3 1.3zm-23.3-2.6h21.9V66.6H27.8v15.3zM51.1 102.5H26.5c-.7 0-1.3-.6-1.3-1.3v-18c0-.7.6-1.3 1.3-1.3h24.6c.7 0 1.3.6 1.3 1.3v17.9c0 .8-.6 1.4-1.3 1.4zm-23.3-2.7h21.9V84.5H27.8v15.3zM75.7 102.5H51.1c-.7 0-1.3-.6-1.3-1.3 0-.7.6-1.3 1.3-1.3h24.6c.7 0 1.3.6 1.3 1.3 0 .7-.6 1.3-1.3 1.3zM75.7 48.7H51.1c-.7 0-1.3-.6-1.3-1.3v-14c0-.5.3-1 .8-1.2l1.9-.8c.4-.2.8-.1 1.1 0l3.1 1.6 3.2-1.4c.4-.2.8-.1 1.1 0l3.1 1.6 3.2-1.4c.4-.2.8-.1 1.1 0l3.1 1.6 3.2-1.4c.4-.2.8-.1 1.1 0l.5.3c.5.2.7.7.7 1.2v14c0 .5-.6 1.2-1.3 1.2zM52.4 46h21.9V34.9l-2.4 1c-.4.2-.8.1-1.1 0l-3.1-1.6-3.2 1.4c-.4.2-.8.1-1.1 0l-3.1-1.6-3.2 1.4c-.4.2-.8.1-1.1 0l-3.1-1.6-.5.2V46zM75.7 66.6H51.1c-.7 0-1.3-.6-1.3-1.3v-18c0-.7.6-1.3 1.3-1.3h24.6c.7 0 1.3.6 1.3 1.3v17.9c0 .8-.6 1.4-1.3 1.4zm-23.3-2.7h21.9V48.7H52.4v15.2zM75.7 84.5H51.1c-.7 0-1.3-.6-1.3-1.3V65.3c0-.7.6-1.3 1.3-1.3h24.6c.7 0 1.3.6 1.3 1.3v17.9c0 .7-.6 1.3-1.3 1.3zm-23.3-2.6h21.9V66.6H52.4v15.3zM75.7 102.5H51.1c-.7 0-1.3-.6-1.3-1.3v-18c0-.7.6-1.3 1.3-1.3h24.6c.7 0 1.3.6 1.3 1.3v17.9c0 .8-.6 1.4-1.3 1.4zm-23.3-2.7h21.9V84.5H52.4v15.3zM100.3 102.5H75.7c-.7 0-1.3-.6-1.3-1.3 0-.7.6-1.3 1.3-1.3H99V29.4c0-.7.6-1.3 1.3-1.3.7 0 1.3.6 1.3 1.3v71.8c.1.7-.5 1.3-1.3 1.3zM100.3 48.7H75.7c-.7 0-1.3-.6-1.3-1.3v-14c0-.5.2-.9.6-1.1.4-.2.9-.3 1.3-.1l2.5 1.3L82 32c.4-.2.8-.1 1.1 0l3.1 1.6 3.2-1.4c.4-.2.8-.1 1.1 0l2.9 1.5 1.9-1.3c.4-.3.9-.3 1.3-.1l4.2 1.9c.5.2.8.7.8 1.2v11.8c.1.8-.5 1.5-1.3 1.5zM77 46h22v-9.6l-2.7-1.3-1.9 1.3c-.4.3-.9.3-1.4.1l-3.1-1.6-3.2 1.4c-.4.2-.8.1-1.1 0l-3.1-1.6-3.2 1.4c-.4.2-.8.1-1.1 0l-1.2-.6V46zM100.3 66.6H75.7c-.7 0-1.3-.6-1.3-1.3v-18c0-.7.6-1.3 1.3-1.3h24.6c.7 0 1.3.6 1.3 1.3v17.9c.1.8-.5 1.4-1.3 1.4zM77 63.9h22V48.7H77v15.2zM100.3 84.5H75.7c-.7 0-1.3-.6-1.3-1.3V65.3c0-.7.6-1.3 1.3-1.3h24.6c.7 0 1.3.6 1.3 1.3v17.9c.1.7-.5 1.3-1.3 1.3zM77 81.9h22V66.6H77v15.3zM100.3 102.5H75.7c-.7 0-1.3-.6-1.3-1.3v-18c0-.7.6-1.3 1.3-1.3h24.6c.7 0 1.3.6 1.3 1.3v17.9c.1.8-.5 1.4-1.3 1.4zM77 99.8h22V84.5H77v15.3zM100.3 36.8c-.2 0-.4 0-.6-.1l-3.5-1.6-1.9 1.3c-.4.3-.9.3-1.4.1l-3.1-1.6-3.2 1.4c-.4.2-.8.1-1.1 0l-3.1-1.6-3.2 1.4c-.4.2-.8.1-1.1 0L75 34.5l-3.2 1.4c-.4.2-.8.1-1.1 0l-3.1-1.6-3.2 1.4c-.4.2-.8.1-1.1 0l-3.1-1.6-3.2 1.4c-.4.2-.8.1-1.1 0l-3.1-1.6-3.2 1.4c-.4.2-.8.1-1.1 0l-3.1-1.6-3.2 1.4c-.4.2-.8.1-1.1 0L38 33.5l-3 1.4c-.4.2-.8.1-1.1 0l-3.1-1.6-3.2 1.4c-.4.2-.8.1-1.1 0l-3.1-1.6-3.2 1.4c-.4.2-.8.1-1.1 0L16 32.9l-3.2 1.4c-.4.2-.8.1-1.1 0l-3.1-1.6L2.4 35c-.4.2-.9.1-1.2-.1-.4-.3-.6-.7-.6-1.1v-8c0-.7.6-1.3 1.3-1.3h98.5c.7 0 1.3.6 1.3 1.3v9.6c0 .5-.2.9-.6 1.1-.3.2-.5.3-.8.3zM90 32.1c.2 0 .4 0 .6.1l2.9 1.5 1.9-1.3c.4-.3.9-.3 1.3-.1l2.3 1.1v-6.2H3.2v4.7L8.1 30c.4-.1.7-.1 1.1.1l3.1 1.6 3.2-1.4c.4-.2.8-.1 1.1 0l3.1 1.6 3.2-1.4c.4-.2.8-.1 1.1 0l3.1 1.6 3.2-1.4c.4-.2.8-.1 1.1 0l3.1 1.6 3.2-1.4c.4-.2.8-.1 1.1 0l3.1 1.6L45 31c.4-.2.8-.1 1.1 0l3.1 1.6 3.2-1.4c.4-.2.8-.1 1.1 0l3.1 1.6 3.2-1.4c.4-.2.8-.1 1.1 0L64 33l3.2-1.4c.4-.2.8-.1 1.1 0l3.1 1.6 3.2-1.4c.4-.2.8-.1 1.1 0l3.1 1.6L82 32c.4-.2.8-.1 1.1 0l3.1 1.6 3.2-1.4c.2-.1.4-.1.6-.1z"/><path opacity=".1" d="M93.6 35.3L90 33.4l-3.8 1.7-3.6-1.9-3.8 1.7-3.1-1.6-.5-.3-3.8 1.7-3.6-1.9-3.8 1.7-3.6-1.9-3.8 1.7-3.6-1.9-1.9.9-1.9.8-3.6-1.9-3.8 1.7-3.6-1.9-3.8 1.7-3.6-1.9-3.8 1.7-.5-.3-3.1-1.6-3.8 1.7-3.6-1.9-3.8 1.7-3.7-1.9-6.7 2.6v4l6.7-2.5 3.7 1.8 3.8-1.6 3.6 1.8 3.8-1.6 3.1 1.5.5.3 3.8-1.6 3.6 1.8 3.8-1.6 3.6 1.8 3.8-1.6 3.6 1.8 1.9-.8 1.9-.8 3.6 1.8 3.8-1.6 3.6 1.8 3.8-1.6 3.6 1.8 3.8-1.6.5.2 3.1 1.6 3.8-1.6 3.6 1.8 3.8-1.6 3.6 1.8 2.5-1.7 4.2 1.9v-4l-4.2-2z"/></g><path fill="#fff" d="M59.7 79.7c.1.2.5.4.8.4h5.8c.3 0 .6-.2.8-.4l2.9-5c.1-.2.1-.6 0-.9l-2.9-5c-.1-.2-.5-.4-.8-.4h-5.8c-.3 0-.6.2-.8.4l-2.9 5c-.1.2-.1.6 0 .9l2.9 5zm3.7-8.2c1.5 0 2.7 1.2 2.7 2.7 0 1.5-1.2 2.7-2.7 2.7s-2.7-1.2-2.7-2.7c0-1.5 1.2-2.7 2.7-2.7z"/></svg>