<svg xmlns="http://www.w3.org/2000/svg" width="36" height="36" viewBox="0 0 36 36"><g fill="#FE0101"><path d="M33.4 35.5H2.6c-.5 0-1-.4-1-1V3.7c0-.5.4-1 1-1h30.8c.5 0 1 .4 1 1v30.8c0 .6-.5 1-1 1zm-29.8-2h28.8V4.7H3.6v28.8zM33.4 12.4H2.6c-.5 0-1-.4-1-1V3.7c0-.5.4-1 1-1h30.8c.5 0 1 .4 1 1v7.7c0 .5-.5 1-1 1zm-29.8-2h28.8V4.7H3.6v5.7zM33.4 12.4H2.6c-.5 0-1-.4-1-1V3.7c0-.5.4-1 1-1h30.8c.5 0 1 .4 1 1v7.7c0 .5-.5 1-1 1zm-29.8-2h28.8V4.7H3.6v5.7zM33.4 20.1H2.6c-.5 0-1-.4-1-1v-7.7c0-.5.4-1 1-1h30.8c.5 0 1 .4 1 1v7.7c0 .6-.5 1-1 1zm-29.8-2h28.8v-5.7H3.6v5.7zM33.4 27.8H2.6c-.5 0-1-.4-1-1v-7.7c0-.5.4-1 1-1h30.8c.5 0 1 .4 1 1v7.7c0 .6-.5 1-1 1zm-29.8-2h28.8v-5.7H3.6v5.7zM23.1 35.5H12.9c-.5 0-1-.4-1-1V11.4c0-.5.4-1 1-1h10.3c.5 0 1 .4 1 1v23.1c-.1.6-.5 1-1.1 1zm-9.3-2h8.3V12.4h-8.3v21.1zM33.4 35.5H23.1c-.5 0-1-.4-1-1V11.4c0-.5.4-1 1-1h10.3c.5 0 1 .4 1 1v23.1c0 .6-.4 1-1 1zm-9.3-2h8.3V12.4h-8.3v21.1zM26.8 25.4c-.3 0-.5-.1-.7-.3-.4-.4-.4-1 0-1.4l2.9-2.9c.4-.4 1-.4 1.4 0s.4 1 0 1.4l-2.9 2.9c-.2.2-.4.3-.7.3zM29.7 25.4c-.3 0-.5-.1-.7-.3l-2.9-2.9c-.4-.4-.4-1 0-1.4s1-.4 1.4 0l2.9 2.9c.4.4.4 1 0 1.4-.2.2-.4.3-.7.3zM8.3 6.9c-.5 0-1-.4-1-1V1.5c0-.5.4-1 1-1 .5 0 1 .4 1 1v4.4c0 .6-.5 1-1 1zM27.7 6.9c-.5 0-1-.4-1-1V1.5c0-.5.4-1 1-1s1 .4 1 1v4.4c0 .6-.4 1-1 1z"/></g></svg>