<svg xmlns="http://www.w3.org/2000/svg" width="36" height="36" viewBox="0 0 36 36"><path fill="#EC1E24" d="M24.852 4.03c.668 0 1.487.473 1.82 1.05l6.853 11.87c.334.577.334 1.524 0 2.102L26.673 30.92c-.334.578-1.153 1.05-1.82 1.05H11.147c-.668 0-1.487-.472-1.82-1.05L2.474 19.05c-.334-.577-.334-1.524 0-2.102L9.327 5.08c.334-.577 1.153-1.05 1.82-1.05h13.705M18 24.224c3.48 0 6.303-2.822 6.303-6.303s-2.822-6.3-6.303-6.3c-3.48 0-6.303 2.82-6.303 6.302S14.52 24.224 18 24.224m6.852-21.92H11.148c-1.28 0-2.676.804-3.316 1.914L.98 16.085c-.64 1.11-.64 2.72 0 3.83L7.832 31.78c.64 1.11 2.035 1.915 3.316 1.915H24.85c1.282 0 2.677-.805 3.317-1.915l6.852-11.868c.64-1.11.64-2.72 0-3.83L28.167 4.22c-.64-1.11-2.035-1.915-3.316-1.915zM18 22.497c-2.523 0-4.576-2.053-4.576-4.576s2.053-4.576 4.576-4.576 4.576 2.053 4.576 4.576-2.053 4.576-4.576 4.576z"/></svg>