<svg xmlns="http://www.w3.org/2000/svg" width="36" height="36" viewBox="0 0 36 36"><path fill="#EC1E24" d="M30.144 24.72H5.856c-1.07 0-1.94-.87-1.94-1.938V9.207c0-1.07.87-1.94 1.94-1.94h24.288c1.07 0 1.94.87 1.94 1.94v13.575c0 1.07-.87 1.94-1.94 1.94zM5.856 8.93c-.153 0-.277.123-.277.276V22.78c0 .154.123.278.276.278h24.288c.153 0 .277-.124.277-.277V9.208c0-.153-.123-.277-.276-.277H5.856zM33.275 27.4H2.725C1.498 27.4.5 26.53.5 25.46v-1.57c0-.46.372-.83.83-.83h33.34c.458 0 .83.37.83.83v1.57c0 1.07-.998 1.94-2.225 1.94zM2.162 24.72v.74c0 .08.197.277.563.277h30.55c.366 0 .563-.197.563-.277v-.74H2.162zM28.482 24.72H7.518c-.46 0-.83-.37-.83-.83V10.87c0-.46.37-.832.83-.832H28.48c.46 0 .832.372.832.83V23.89c0 .46-.37.83-.83.83zM8.35 23.06h19.3V11.7H8.35v11.36z"/></svg>