<svg xmlns="http://www.w3.org/2000/svg" viewBox="0 0 124 124" enable-background="new 0 0 124 124"><path fill="#fff" d="M62 123C28.365 123 1 95.635 1 62S28.365 1 62 1c33.636 0 61 27.365 61 61s-27.364 61-61 61zM62 4.432C30.257 4.432 4.432 30.256 4.432 62S30.257 119.568 62 119.568c31.742 0 57.568-25.826 57.568-57.57S93.742 4.433 62 4.433zM22.29 104.214H18.86v-64.59h86.284v63.842h-3.433v-60.41H22.29zM78.105 118.01h-3.432V67.918H49.327v50.094h-3.432V64.486h32.21zM47.61 74.37h28.78v3.433H47.61zM20.574 49.508h82.85v3.432h-82.85z"/></svg>