<svg xmlns="http://www.w3.org/2000/svg" viewBox="0 0 124 124" enable-background="new 0 0 124 124"><path fill="#fff" d="M62 123C28.363 123 1 95.635 1 62S28.364 1 62 1s61 27.365 61 61-27.366 61-61 61zM62 4.432C30.255 4.432 4.43 30.257 4.43 62S30.256 119.568 62 119.568 119.567 93.743 119.567 62 93.742 4.432 61.998 4.432zM49.908 118.515h-3.433v-30.99H22.29v15.9H18.86V84.092h31.05zM77.525 118.515h-3.433V67.918H49.908v50.597h-3.433v-54.03h31.05zM77.525 118.515h-3.433V39.623h31.05v63.802h-3.433v-60.37H77.524zM105.142 52.94h-31.05V39.624h31.05V52.94zm-27.617-3.43h24.185v-6.454H77.525v6.453z"/></svg>