<svg xmlns="http://www.w3.org/2000/svg" width="36" height="36" viewBox="0 0 36 36"><g fill="#FE0101"><path d="M21.13 15.55c-.237 0-.475.084-.665.253-.415.368-.453 1-.086 1.416l6.166 6.962c.367.414 1 .454 1.416.086l7.2-6.376c.415-.367.453-1.002.086-1.416-.368-.415-1-.453-1.416-.086l-6.45 5.71-5.5-6.21c-.2-.225-.475-.34-.753-.34zM14.658 3.842C6.85 3.842.5 10.192.5 18c0 7.807 6.35 14.158 14.158 14.158 2.697 0 5.32-.76 7.585-2.2.468-.3.606-.918.308-1.386-.296-.468-.917-.605-1.384-.31-1.943 1.236-4.193 1.89-6.508 1.89-6.7 0-12.15-5.452-12.15-12.152 0-6.7 5.45-12.152 12.15-12.152S26.81 11.3 26.81 18c0 .554.45 1.003 1.003 1.003.554 0 1.003-.45 1.003-1.003 0-7.807-6.35-14.158-14.158-14.158z"/></g></svg>