<svg xmlns="http://www.w3.org/2000/svg" width="380" height="380" viewBox="0 0 380 380"><path fill="#EDEDED" d="M97 205.833l83-47.666-.167-94.667 3-6.667 6.667-6.166 7 4.333 4 6.5-.333 96.667 82.223 48.544 2.507 6.232 2.103 7.225-4.167 1.223-10.16.995L190 175.333 107.833 222.5h-9.166l-7-3.5 2.666-10.167z"/><g><path fill="#5E605E" d="M103.103 4.583c2.62 0 5.238.574 7.225 1.72L191.88 53.39c3.974 2.294 7.225 7.926 7.225 12.514v94.168c0 4.59-3.25 10.22-7.225 12.514l-81.552 47.084c-1.987 1.147-4.606 1.72-7.225 1.72-2.62 0-5.238-.573-7.225-1.72l-81.552-47.084C10.352 170.29 7.1 164.658 7.1 160.07V65.903c0-4.59 3.252-10.22 7.226-12.514L95.878 6.303c1.987-1.147 4.606-1.72 7.225-1.72m0-3c-3.256 0-6.354.753-8.725 2.122L12.825 50.79C7.933 53.615 4.1 60.253 4.1 65.903v94.168c0 5.65 3.833 12.29 8.725 15.113l81.552 47.084c2.37 1.37 5.47 2.123 8.725 2.123 3.256 0 6.354-.754 8.725-2.123l81.552-47.084c4.892-2.825 8.724-9.463 8.724-15.112V65.904c0-5.65-3.833-12.288-8.725-15.112L111.827 3.707c-2.37-1.37-5.47-2.123-8.725-2.123zM277.242 4.583c2.62 0 5.238.574 7.225 1.72L366.02 53.39c3.973 2.294 7.224 7.926 7.224 12.514v94.168c0 4.59-3.25 10.22-7.225 12.514l-81.553 47.084c-1.987 1.147-4.606 1.72-7.225 1.72-2.62 0-5.238-.573-7.225-1.72l-81.552-47.084c-3.974-2.294-7.225-7.926-7.225-12.514V65.903c0-4.59 3.25-10.22 7.225-12.514l81.552-47.085c1.987-1.148 4.606-1.722 7.225-1.722m0-3c-3.256 0-6.354.754-8.725 2.123L186.965 50.79c-4.893 2.825-8.725 9.463-8.725 15.112v94.168c0 5.65 3.833 12.288 8.725 15.112l81.552 47.084c2.37 1.37 5.47 2.123 8.725 2.123s6.354-.755 8.725-2.124l81.552-47.084c4.892-2.825 8.724-9.463 8.724-15.112V65.903c0-5.65-3.833-12.288-8.725-15.112L285.966 3.707c-2.37-1.37-5.47-2.123-8.725-2.123zM189.172 156.705c2.62 0 5.238.574 7.225 1.72l81.552 47.085c3.973 2.294 7.224 7.926 7.224 12.514v94.168c0 4.59-3.25 10.22-7.225 12.514l-81.553 47.084c-1.987 1.147-4.606 1.72-7.225 1.72-2.62 0-5.238-.573-7.225-1.72l-81.552-47.084c-3.974-2.294-7.225-7.926-7.225-12.514v-94.168c0-4.59 3.25-10.22 7.225-12.514l81.552-47.084c1.986-1.147 4.605-1.72 7.225-1.72m0-3c-3.256 0-6.354.753-8.725 2.122l-81.552 47.084c-4.893 2.825-8.725 9.463-8.725 15.112v94.168c0 5.65 3.833 12.288 8.725 15.112l81.552 47.084c2.37 1.37 5.47 2.123 8.725 2.123 3.256 0 6.354-.753 8.725-2.122l81.552-47.084c4.892-2.825 8.724-9.463 8.724-15.112v-94.168c0-5.65-3.833-12.288-8.725-15.112l-81.553-47.084c-2.37-1.37-5.47-2.123-8.725-2.123z"/><path fill="#F6364D" d="M179.18 156.65c-.485.28-.882.965-.882 1.524v11.478c0 .56.396 1.246.88 1.525l9.942 5.74c.484.28 1.277.28 1.76 0l9.942-5.74c.484-.28.88-.966.88-1.525v-11.478c0-.56-.395-1.246-.88-1.525l-9.94-5.74c-.485-.28-1.278-.28-1.762 0l-9.94 5.74zm16.165 7.264c0 2.916-2.364 5.28-5.28 5.28-2.915 0-5.278-2.365-5.278-5.28 0-2.916 2.364-5.28 5.28-5.28 2.914 0 5.278 2.364 5.278 5.28z"/></g><g fill="#61615E"><path d="M73.5 110.337c0-1.22-.786-1.9-2.047-1.9-1.316 0-2.116.72-2.116 2.022v2.916c0 1.315.8 2.02 2.09 2.02s2.075-.663 2.075-1.885v-.066h1.614v.067c0 2.145-1.424 3.298-3.69 3.298-2.265 0-3.703-1.193-3.703-3.432v-2.917c0-2.13 1.356-3.42 3.486-3.42 1.057 0 1.884.34 2.427.964l.217-.827h1.262v3.215h-1.614v-.055zM76.637 107.177h4.924c1.9 0 3.148.908 3.148 2.875 0 1.56-.773 2.456-2.035 2.768l1.424 2.44h1.316v1.412h-2.36l-2.144-3.73h-1.466v2.32h1.248v1.41h-4.056v-1.41h1.194v-6.69h-1.194v-1.395zm2.808 4.353h2.048c.936 0 1.533-.447 1.533-1.48 0-1.03-.597-1.478-1.533-1.478h-2.048v2.958zM87.602 108.573h-1.194v-1.396h7.556v2.875h-1.6v-1.48h-3.148v2.647h3.255v1.396h-3.254v2.645h3.147v-1.478h1.6v2.89H86.41v-1.41h1.194v-6.69zM94.848 115.26h1.1l2.916-8.083h1.994l2.917 8.084h1.03v1.412h-3.784v-1.41h1.046l-.516-1.384h-3.527l-.516 1.383h1.126v1.412h-3.785v-1.41zm3.622-2.793h2.63l-1.315-3.663-1.315 3.663zM106.26 115.26h1.465v-6.687h-1.71v1.48h-1.613v-2.876h8.248v2.875h-1.614v-1.48h-1.696v6.69h1.45v1.41h-4.53v-1.41zM116.68 115.26h1.18v1.412h-3.987v-1.41h1.194v-6.69h-1.194v-1.395h3.988v1.396h-1.18v6.688zM126.002 108.573h-1.126v-1.396h3.785v1.396h-1.084l-2.93 8.1h-1.886l-2.93-8.1h-1.017v-1.396h3.785v1.396h-1.044l2.225 6.32 2.222-6.32zM130.808 108.573h-1.194v-1.396h7.556v2.875h-1.6v-1.48h-3.148v2.647h3.255v1.396h-3.255v2.645h3.147v-1.478h1.6v2.89h-7.556v-1.41h1.194v-6.69zM229.153 115.26h1.465v-6.687h-1.71v1.48h-1.613v-2.876h8.247v2.875h-1.614v-1.48h-1.695v6.69h1.45v1.41h-4.53v-1.41zM237.96 108.573h-1.194v-1.396h7.556v2.875h-1.6v-1.48h-3.147v2.647h3.255v1.396h-3.255v2.645h3.146v-1.478h1.602v2.89h-7.556v-1.41h1.194v-6.69zM251.664 110.337c0-1.22-.787-1.9-2.05-1.9-1.314 0-2.115.72-2.115 2.022v2.916c0 1.315.8 2.02 2.088 2.02 1.29 0 2.076-.663 2.076-1.885v-.066h1.614v.067c0 2.145-1.425 3.298-3.69 3.298-2.265 0-3.703-1.193-3.703-3.432v-2.917c0-2.13 1.356-3.42 3.486-3.42 1.06 0 1.887.34 2.43.964l.217-.827h1.262v3.215h-1.615v-.055zM263.306 115.26h1.193v1.412h-3.99v-1.41h1.195v-2.646h-4.097v2.645h1.18v1.412H254.8v-1.41h1.194v-6.69H254.8v-1.395h3.988v1.396h-1.18v2.646h4.097v-2.647h-1.194v-1.396h3.99v1.396h-1.194v6.688zM268.803 115.26h1.18v1.412h-3.987v-1.41h1.193v-6.69h-1.194v-1.395h2.7l4.204 6.538v-5.142h-1.193v-1.396h3.988v1.396h-1.18v8.1h-1.52l-4.192-6.54v5.128zM284.38 113.376c0 2.238-1.452 3.432-3.744 3.432-2.266 0-3.717-1.193-3.717-3.432v-2.917c0-2.226 1.45-3.42 3.743-3.42 2.265 0 3.717 1.194 3.717 3.42v2.916zm-1.614-2.917c0-1.303-.814-2.022-2.103-2.022-1.316 0-2.13.72-2.13 2.02v2.918c0 1.315.813 2.02 2.103 2.02 1.315 0 2.13-.704 2.13-2.02v-2.917zM290.365 108.573h-1.547v6.688h3.147v-1.75h1.6v3.162h-7.555v-1.41h1.193v-6.69h-1.193v-1.395h4.354v1.396zM302.387 113.376c0 2.238-1.452 3.432-3.744 3.432-2.266 0-3.717-1.193-3.717-3.432v-2.917c0-2.226 1.45-3.42 3.744-3.42 2.265 0 3.717 1.194 3.717 3.42v2.916zm-1.615-2.917c0-1.303-.814-2.022-2.103-2.022-1.317 0-2.13.72-2.13 2.02v2.918c0 1.315.812 2.02 2.102 2.02 1.315 0 2.13-.704 2.13-2.02v-2.917zM309.932 110.052c-.04-1.07-.827-1.614-2.048-1.614-1.316 0-2.116.72-2.116 2.02v2.918c0 1.315.8 2.02 2.09 2.02 1.287 0 2.074-.663 2.074-1.885v-.474h-2.496v-1.41h4.11v5.046h-1.193l-.23-.813c-.598.623-1.48.948-2.592.948-2.06 0-3.376-1.167-3.376-3.432v-2.917c0-2.13 1.356-3.42 3.486-3.42 1.058 0 1.912.3 2.44.91l.204-.773h1.262v3.01h-1.614v-.135zM322.008 108.573h-1.018l-2.862 4.612v2.075h1.452v1.41h-4.53v-1.41h1.464v-2.075l-2.875-4.612h-1.02v-1.396h3.88v1.396h-.963l1.872 3.093 1.87-3.093h-1.166v-1.396h3.894v1.396zM155.838 267.518c1.07 0 1.804-.42 1.804-1.302 0-.923-.624-1.194-2.035-1.438-2.238-.38-3.296-1.18-3.296-2.97 0-1.764 1.262-2.646 2.985-2.646.84 0 1.818.27 2.456.95l.218-.814h1.248v2.97h-1.6c-.015-1.14-.733-1.71-1.94-1.71-1.072 0-1.71.422-1.71 1.263 0 .897.638 1.222 1.953 1.453 2.237.393 3.377 1.166 3.377 2.97 0 1.79-1.343 2.687-3.066 2.687-.867 0-1.87-.258-2.536-.95l-.217.814h-1.262v-2.97h1.614c.014 1.138.815 1.694 2.008 1.694zM162.448 267.382h1.465v-6.688h-1.71v1.48h-1.613v-2.876h8.248v2.875h-1.614v-1.48h-1.696v6.69h1.45v1.41h-4.53v-1.41zM170.06 259.298h4.925c1.9 0 3.147.908 3.147 2.875 0 1.56-.773 2.456-2.035 2.768l1.424 2.442h1.317v1.41h-2.36l-2.144-3.73h-1.465v2.32h1.248v1.41h-4.056v-1.41h1.194v-6.688h-1.194v-1.396zm2.81 4.353h2.047c.936 0 1.533-.446 1.533-1.478 0-1.03-.597-1.48-1.533-1.48h-2.048v2.96zM179.288 267.382h1.1l2.916-8.084h1.994l2.917 8.084h1.03v1.41h-3.784v-1.41h1.046L185.99 266h-3.527l-.516 1.382h1.126v1.41h-3.785v-1.41zm3.622-2.794h2.632l-1.316-3.663-1.316 3.663zM190.7 267.382h1.465v-6.688h-1.71v1.48h-1.614v-2.876h8.25v2.875h-1.615v-1.48h-1.695v6.69h1.45v1.41h-4.53v-1.41zM199.507 260.694h-1.194v-1.396h7.556v2.875h-1.602v-1.48h-3.146v2.647h3.255v1.397h-3.255v2.645h3.146v-1.48h1.6v2.89h-7.555v-1.41h1.194v-6.688zM213.21 262.173c-.04-1.07-.827-1.614-2.048-1.614-1.315 0-2.116.72-2.116 2.02v2.917c0 1.315.8 2.02 2.09 2.02 1.288 0 2.075-.663 2.075-1.885v-.475h-2.495v-1.41h4.11v5.046h-1.194l-.23-.813c-.596.624-1.478.95-2.59.95-2.062 0-3.378-1.168-3.378-3.433v-2.917c0-2.13 1.356-3.418 3.486-3.418 1.06 0 1.913.298 2.44.908l.205-.772h1.262v3.01h-1.614v-.135zM225.287 260.694h-1.018l-2.863 4.612v2.075h1.45v1.412h-4.53v-1.41h1.466v-2.076l-2.876-4.612H215.9v-1.396h3.88v1.396h-.964l1.872 3.093 1.872-3.093h-1.167v-1.396h3.894v1.396z"/></g></svg>