<svg xmlns="http://www.w3.org/2000/svg" width="142" height="12" viewBox="0 0 330.3 27" enable-background="new 0 0 330.3 27"><g fill="#fff"><path d="M5.6 17.7v1.8c0 1.5.5 2.8 2.4 2.8 1.4 0 2-1.3 2-2.6 0-2.2-1.8-3-3.4-3.9-1.9-1.1-3.4-2.1-4.6-3.4C1 11.2.3 9.6.3 7.3.3 2.5 3.3 0 7.9 0c5.3 0 7.9 3.5 7.7 8.3H10c0-1.5 0-3.5-2-3.7-1.2-.1-2 .6-2.1 1.7-.1 1.6.7 2.4 1.9 3.2 2.3 1.4 4.2 2.3 5.6 3.6 1.4 1.3 2.2 3 2.2 6.1 0 4.9-2.7 7.7-7.8 7.7-5.5.1-7.8-3-7.8-6.4v-2.7h5.6zM31.1.6h15.6v5.1h-4.9v20.6h-6V5.8h-4.7V.6zM62.7.6h6V20c0 1.2.4 2.3 2.1 2.3 1.6 0 2.1-1.4 2.1-2.5V.6h6v18.6c0 4.4-2 7.7-8.1 7.7-5.1 0-8.1-2.4-8.1-7.7V.6zM95.6 26.4V.6h6.6c2.2 0 4.8.1 6.8 1.2 2.3 1.4 2.7 3.9 2.7 6.3v11.4c0 2.6-.8 4.5-2.6 5.6-1.6 1-3.5 1.2-5.4 1.2h-8.1zm6.1-4.7c4 .3 4.1-1.4 4-4.8V8.5c0-3-1-3.2-4-3.3v16.5zM128.6 26.4V.6h6v25.7h-6zM167.9 18.2c0 5.8-2 8.8-8.1 8.8s-8.2-3-8.2-8.8V7.7c0-4.9 3-7.7 8.2-7.7 5.3 0 8.1 2.7 8.1 7.7v10.5zm-6.1-10.1c0-1.6-.1-3.5-2.1-3.5-1.9 0-2.2 1.9-2.2 3.5v10.6c0 1.5.2 3.7 2.2 3.7s2.1-2.2 2.1-3.7V8.1zM184.4 26.4V.6h7.8c4.6 0 8.1 1.5 8.1 6.7 0 2.3-.8 4.3-2.9 5.4v.1c2.7 1.6 3.3 3 3.3 6.1 0 5.2-3 7.4-7.9 7.4h-8.4zm6.1-15.7c2.6-.2 3.9 0 3.9-3.1 0-2.5-1.8-2.4-3.9-2.4v5.5zm0 11c3-.1 4.3.1 4.3-3.3 0-3-1.7-2.9-4.3-3v6.3zM216 26.4L221.6.7h7.3l5.6 25.7h-6.1l-.9-5h-4.7l-.7 5H216zm9.3-21.1l-1.8 11.5h3.5l-1.7-11.5zM255.3 11.9l.5 14.4H250V.6h6.2l4.7 14.4h.1L260.4.6h5.7v25.7H260l-4.7-14.4zM282.9 26.4V.6h6v10.3h.1L293.5.6h6.2L294.1 12l5.8 14.4h-6.4l-3.3-9-1.3 2.6v6.3h-6zM320.3 17.7v1.8c0 1.5.5 2.8 2.4 2.8 1.4 0 2-1.3 2-2.6 0-2.2-1.8-3-3.4-3.9-1.9-1.1-3.4-2.1-4.6-3.4-1.1-1.3-1.8-2.9-1.8-5.1 0-4.8 2.9-7.3 7.6-7.3 5.2 0 7.9 3.5 7.7 8.3h-5.6c-.1-1.5 0-3.6-2-3.7-1.2-.1-2 .6-2.1 1.7-.2 1.5.6 2.3 1.8 3.2 2.3 1.4 4.2 2.3 5.6 3.6 1.4 1.3 2.2 3 2.2 6.1 0 4.9-2.7 7.7-7.8 7.7-5.5 0-7.9-3.1-7.9-6.5v-2.7h5.9z"/></g></svg>