<svg xmlns="http://www.w3.org/2000/svg" width="75" height="15" viewBox="-23 41 110 22" enable-background="new -23 41 110 22"><path class="bolt" fill="#fff" d="M56.8 62.2l5.3-9.3c.3-.5.3-1.2 0-1.7l-5.3-9.3c-.2-.5-.9-.9-1.4-.9H44.8c-.5 0-1.2.4-1.4.8L38 51.2c-.3.5-.3 1.2 0 1.7l5.3 9.3c.3.5.9.8 1.4.8h10.7c.5 0 1.2-.4 1.4-.8zM45.2 51.9c0-2.7 2.2-5 4.9-5s4.9 2.2 4.9 5-2.2 5-4.9 5-4.9-2.2-4.9-5z"/><path class="letter" fill="#fff" d="M-9.8 57.8h-6.1V41H-23v18c0 2.2 2.3 4 5.1 4h10c2.9 0 5.1-1.7 5.1-4V41h-7.1l.1 16.8zM80.1 41v11.3L71.4 41h-6.7v22h6.9V51.7L80.3 63H87V41h-6.9zM16.7 52.3L8 41H1.3v22h6.9V51.7L16.9 63h6.7V41h-6.9v11.3zM28.2 63h7.1V41h-7.1v22z"/></svg>