<svg xmlns="http://www.w3.org/2000/svg" width="220" height="76" viewBox="-0.7 -0.4 220 76" enable-background="new -0.7 -0.4 220 76"><path fill="#51555A" d="M109.6 49.5L0 56l.1 1 109.5-1.8L218.5 57l.1-1-109-6.5zM59.7 14.6h2.7c.2 0 .3-.2.4-.3l.6-1.7h4.7l.6 1.7c.1.2.2.3.4.3h2.7c.1 0 .3-.2.3-.3C70.5 9.6 69 4.9 67.4.2c0-.2-.1-.3-.3-.3h-2.7c-.2 0-.3.1-.4.4l-4.6 14c-.1.2.1.3.3.3zm6.1-9.1l1.4 4.3h-2.8l1.4-4.3zm9 9.1h2.8c.2 0 .3-.1.3-.3L78 9l1.9 5.3c.1.2.2.3.4.3h1.9c.2 0 .3-.2.4-.3L84.4 9l.1 5.3c0 .2.1.3.3.3h2.8c.2 0 .3-.1.3-.3L87.1.2c0-.1 0-.2-.1-.2h-3.1c-.1 0-.3.1-.3.3l-2.4 8.1-.2 1.8-.3-1.8L78.6.3c0-.2-.1-.3-.3-.3h-3.1c0 .1-.1.1-.1.2v.1l-.6 14c0 .2.1.3.3.3zm74.9 0h2.8c.1 0 .3-.2.3-.3v-7l2.8 7c0 .2.2.3.4.3h3.7c.2 0 .3-.2.3-.3V.2c0-.2-.2-.3-.3-.3h-2.8c-.1 0-.3.1-.3.3v8.1L153.5.2c0-.2-.1-.3-.3-.3h-3.5c-.2 0-.3.1-.3.3v14.1c0 .2.1.3.3.3zm-26.5-.2c.3.2.6.2.6.2h6s.3 0 .6-.2l1.3-1.2c.3-.2.3-.3.3-.4v-2.4c0-.2-.1-.3-.3-.3h-2.8c-.2 0-.3.2-.3.3v.6l-.1.1-.3.3h-2.7l-.3-.3c-.1 0-.1-.1-.1-.1V3.5l.1-.1.4-.4c.1-.1.2-.1.2-.1h2.3c.1 0 .2.1.2.1l.4.4c.1 0 .1.1.1.1V4c0 .2.1.3.3.3h2.8c.1 0 .3-.2.3-.3V1.8s0-.2-.3-.5L130.6.1c-.2-.2-.6-.2-.6-.2h-6s-.3 0-.7.3L122 1.4c-.2.2-.2.5-.2.5h-.1v10.8s0 .3.2.5l1.3 1.2zm-20.7.1h2.8c.2 0 .3-.2.3-.3V9.1h1.1l2.3 5.1c.1.2.2.3.4.3h3.1c.1 0 .3-.2.3-.3l-2.4-5.3h.1l1.3-1.2c.2-.2.2-.5.2-.5V1.9s0-.3-.2-.6L110.5.1c-.3-.2-.6-.2-.6-.2h-7.4c-.1 0-.3.1-.3.3v14c0 .2.1.3.3.3zm3-11.6h2.4s.1 0 .2.1l.4.3c.1.1.1.2.1.2v2s0 .1-.1.2l-.4.3c-.1.1-.2.1-.2.1h-2.4V2.9zm28.8 11.7h2.7c.2 0 .3-.2.4-.3l.6-1.7h4.6l.6 1.7c.1.2.2.3.4.3h2.7c.1 0 .3-.2.3-.3-1.5-4.7-3-9.4-4.7-14 0-.2-.1-.3-.3-.3h-2.7c-.1 0-.2.1-.3.3l-4.6 14c-.1.2.1.3.3.3zm6-9.1l1.4 4.3h-2.8l1.4-4.3zm-24.7 9.1h2.8c.2 0 .3-.1.3-.3V.3c0-.2-.1-.3-.3-.3h-2.8c-.2 0-.3.1-.3.3v14c0 .2.1.3.3.3zm-24.8 0h8.5c.1 0 .3-.1.3-.3v-2.5c0-.2-.1-.3-.3-.3h-5.4V8.8H98c.2 0 .3-.1.3-.3V6c0-.2-.1-.3-.3-.3h-4.1V3h5.4c.1 0 .3-.1.3-.3V.2c0-.2-.1-.3-.3-.3h-8.5c-.2 0-.3.1-.3.3v14.1c0 .2.1.3.3.3zm47.3 47.6h-2.4c-.2 0-.3.2-.3.3v7.1l-2.7-7.1c-.1-.2-.2-.3-.3-.3h-3c-.2 0-.3.2-.3.3v12.3c0 .2.1.3.3.3h2.4c.2 0 .3-.2.3-.3v-6.1l2.5 6.1c.1.2.2.3.4.3h3.2c.2 0 .3-.2.3-.3V62.5c0-.2-.1-.3-.4-.3zm10.2.2c-.2-.2-.5-.2-.5-.2h-5.3s-.3 0-.5.2l-1.1 1c-.2.2-.2.5-.2.5v9.4s0 .3.2.5l1.1 1c.2.2.5.2.5.2h5.3s.3 0 .5-.2l1.1-1c.1-.1.2-.2.2-.3v-5.6c0-.2-.1-.3-.3-.3h-4c-.2 0-.3.2-.3.3v2.2c0 .2.1.3.3.3h1.5V72s-.1 0-.1.1l-.3.3H144l-.3-.3c-.1 0-.1-.1-.1-.1v-6.6l.1-.1.3-.3c0-.1.1-.1.1-.1h2s.1 0 .1.1l.3.3c.1 0 .1.1.1.1v.5c0 .2.1.3.3.3h2.4c.2 0 .3-.2.3-.3v-2s0-.3-.2-.5l-1.1-1zm-32.1 10h-5.5v-9.9c0-.1-.2-.2-.3-.2H108c-.2 0-.3.1-.3.2v12.3c0 .2.1.3.3.3h8.2c.2 0 .3-.2.3-.3v-2.2c0-.1-.1-.2-.3-.2zm-11.4 0h-5.5v-9.9c0-.1-.2-.2-.3-.2h-2.4c-.2 0-.3.1-.3.2v12.3c0 .2.1.3.3.3h8.2c.2 0 .3-.2.3-.3v-2.2c0-.1-.1-.2-.3-.2zm54.8-10.2h-7.4c-.2 0-.3.2-.3.3V75c0 .2.1.3.3.3h7.4c.2 0 .3-.2.3-.3v-2.2c0-.2-.2-.3-.3-.3h-4.7v-2.4h3.6c.2 0 .3-.2.3-.3v-2.2c0-.2-.1-.3-.3-.3h-3.6V65h4.7c.2 0 .3-.2.3-.3v-2.2c0-.2-.2-.3-.3-.3zm-33.2 0H119c-.2 0-.3.2-.3.3V75c0 .2.1.3.3.3h7.4c.2 0 .3-.2.3-.3v-2.2c0-.2-.2-.3-.3-.3h-4.7v-2.4h3.6c.2 0 .3-.2.3-.3v-2.2c0-.2-.1-.3-.3-.3h-3.6V65h4.7c.2 0 .3-.2.3-.3v-2.2c0-.2-.2-.3-.3-.3zm-36.9 0h-2.4c-.2 0-.2.1-.3.3l-4 12.3c0 .2.1.3.3.3h2.3c.2 0 .3-.2.4-.3l.5-1.5h4.1l.5 1.5c.1.2.2.3.4.3h2.3c.2 0 .3-.2.3-.3-1.3-4.1-2.7-8.2-4.1-12.3-.1-.2-.2-.3-.3-.3zm-2.3 8.6l1.2-3.8 1.2 3.8h-2.4zm-18.5.4h-2.4c-.2 0-.3.2-.3.3v.5l-.1.1-.3.3h-2.4l-.3-.3c-.1 0-.1-.1-.1-.1v-6.6l.1-.1.3-.3c0-.1.1-.1.1-.1h2l.4.4c.1 0 .1.1.1.1v.5c0 .2.1.3.3.3h2.4c.2 0 .3-.2.3-.3v-2s0-.3-.2-.5l-1.1-1c-.2-.2-.5-.2-.5-.2h-5.4s-.3 0-.5.2l-1.1 1c-.2.2-.2.5-.2.5h.3v9.5s0 .3.2.5l1.1 1c.2.2.5.2.5.2h5.3s.3 0 .5-.2l1.1-1c.2-.2.2-.2.2-.3v-2.1c0-.2-.2-.3-.3-.3zm11.4-9h-2.4c-.2 0-.3.2-.3.3v4.8h-3.1v-4.8c0-.2-.2-.3-.3-.3h-2.4c-.2 0-.3.2-.3.3v12.3c0 .2.1.3.3.3H74c.2 0 .3-.2.3-.3V70h3.1v4.8c0 .2.2.3.3.3h2.4c.2 0 .3-.2.3-.3V62.5c0-.2-.1-.3-.3-.3zm116-15c2.1.2 3.1.3 5.2.5.5.1.7-.1.7-.6v-6.7c0-.2.1-.2.2-.2 1.7.1 2.5.2 4.2.3.2 0 .2.1.3.2 1.7 3 2.5 4.5 4.2 7.5.1.2.2.4.4.5.2.1.4.2.6.2 2.3.3 3.5.4 5.9.7.2.1.3 0 .4-.1.1-.1.1-.2 0-.4-1.8-3.4-2.7-5.1-4.6-8.4 1.3-1.4 2-2 3.4-3.4l.3-.6c.1-.2.1-.3.1-.5v-8.4c0-.2 0-.4-.1-.7-.1-.3-.1-.5-.2-.7-1.3-1.5-2-2.2-3.4-3.6-.2-.1-.4-.1-.7-.2-.3-.1-.5-.1-.7-.1h-16.2c-.2 0-.4.1-.5.2-.1.1-.2.3-.2.5v23.3c0 .4.2.7.7.7zm5.7-18.7c3.6.1 5.4.1 9 .2 0 .6 0 .9.1 1.5V35h-.8c-1.6-.1-2.4-.1-4-.2-1.7-.1-2.6-.1-4.3-.2v-6.1zm-30.7 16.4c.1.1.3.2.5.2 2.1.2 3.1.2 5.2.4.2 0 .4 0 .5-.1.1-.1.2-.2.2-.4v-6c0-.2.1-.3.2-.4.1-.1.3-.1.5-.1 3 .1 4.4.2 7.4.4.2 0 .4.1.5.2.1.2.2.3.2.5v6.1c0 .2.1.4.2.5.1.1.3.2.5.2 2.1.2 3.1.3 5.2.5.2 0 .4 0 .5-.1s.2-.2.2-.4V27.3c0-.2 0-.5-.1-.7-.1-.2-.1-.4-.2-.6-1.4-1.3-2-2-3.6-3.3-.2-.1-.4-.1-.7-.2-.3-.1-.5-.1-.7-.1h-11.8c-.2 0-.5 0-.7.1-.2.1-.4.1-.6.2-1.3 1.2-2 1.8-3.4 3-.1.1-.2.3-.2.5 0 .1-.1.3-.1.5v.6c.1 6.9.1 10.3.1 17.2 0 .1.1.3.2.4zm6.4-17.3c3.5.1 5.3.1 8.8.2.1 2.5.1 3.7 0 6-3.5-.1-5.3-.2-8.8-.3v-5.9zm-28.4 13.2c1.3 1.2 2 1.8 3.4 3 .1.1.4.1.6.2.3.1.5.1.7.1h.5c.9 0 1.4.1 2.3.1 4.6.3 6.9.4 11.5.7.2.1.4 0 .5-.1.1-.1.2-.2.2-.4v-4.2c0-.1-.1-.3-.2-.4-.1-.1-.3-.2-.5-.2l-12-.5c-.2 0-.4-.1-.5-.2-.1-.1-.2-.2-.2-.4V28.4c0-.2.1-.3.2-.4.1-.1.3-.2.5-.1 4.8.1 7.2.1 12 .2.2 0 .4-.1.5-.2.1-.1.2-.2.2-.4v-4.3c0-.1-.1-.3-.2-.4-.1-.1-.3-.2-.5-.2h-14.7c-.1 0-.2 0-.4.1-.1.1-.3.1-.5.2-1.3 1.1-2 1.7-3.4 2.8-.1.1-.2.3-.2.5-.1.2-.1.3-.1.5v13.1c0 .1 0 .3.1.5 0 .2.1.4.2.5zM31.2 43c1.3 1.2 2 1.8 3.4 2.9.1.1.4.2.6.2h.7c.4 0 .6-.1 1-.1 3.2-.2 4.9-.4 8.1-.6 1.1-.1 1.6-.1 2.7-.2.2 0 .4 0 .7-.1.2 0 .4-.1.6-.2 1.4-1.3 2.1-2 3.5-3.3.1-.1.2-.3.2-.5.1-.1.1-.3.1-.5V23.1c0-.1-.1-.3-.2-.4-.1-.1-.3-.2-.4-.3H47c-.2 0-.4.1-.5.2-.1.1-.2.2-.2.4v16.1c0 .1-.1.3-.2.4-.1.1-.3.2-.5.2-3 .1-4.4.2-7.4.4-.2.1-.4 0-.5-.1-.1-.1-.2-.2-.2-.4V23.1c0-.2-.1-.4-.2-.5-.1-.1-.3-.2-.5-.2h-5.2c-.2 0-.4.1-.5.2-.1.2-.2.3-.2.5v18.7c0 .2.1.4.1.6 0 .3.1.5.2.6zM1.1 49.6c2-.2 3-.4 5.1-.6.5-.1.7-.3.7-.8V28.9c1.7 0 2.6 0 4.2-.2v19c0 .2.1.4.2.5.1.1.3.1.5.1 1.9-.2 2.8-.3 4.7-.5.2 0 .4-.1.5-.2.1-.1.2-.3.2-.5V28.6c1.7 0 2.5-.1 4.2-.1v18.2c0 .2.1.4.2.5.1.1.3.1.5.1 2.1-.2 3.1-.3 5.2-.5.2 0 .4-.1.5-.2.1-.1.2-.3.2-.5V27.2c0-.2 0-.4-.1-.6-.1-.2-.1-.4-.1-.5-1.3-1.3-2-1.9-3.4-3.2-.2-.1-.4-.1-.7-.2-.3-.1-.5-.1-.7-.1H1.1c-.2 0-.4.1-.5.2-.1.1-.2.3-.2.5v25.6c0 .5.2.8.7.7zm54.8-16.8c1.3 1.1 2 1.7 3.4 2.8.1 0 .3.1.6.1h1.2c1.8 0 2.7-.1 4.5-.1 1.4 0 2.1-.1 3.4-.1.2-.1.4 0 .5.1.1.1.2.2.2.4v2.5c0 .2-.1.3-.2.4-.1.1-.3.2-.5.2-1.5 0-2.2.1-3.6.1-1.3 0-1.9.1-3.2.1-2.3.1-3.5.2-5.9.3-.2 0-.4.1-.5.2-.1.1-.2.2-.2.4V44c0 .4.2.6.7.6 2-.1 2.9-.2 4.9-.3 3.4-.2 5.1-.3 8.5-.4h.8c.2 0 .4 0 .7-.3.3 0 .5-.1.7-.2 1.3-1.2 2-1.7 3.4-2.9.1-.1.1-.3.2-.5s.1-.3.1-.5V35c0-.1 0-.3-.1-.5s-.1-.4-.2-.6c-1.3-1.1-2-1.6-3.4-2.7-.2 0-.4-.1-.7-.1h-1.6c-2 0-3.1.1-5.1.1h-2.4c-.2 0-.4-.1-.5-.2-.1-.1-.2-.2-.2-.4v-2.5c0-.2.1-.3.2-.4.1-.1.3-.2.5-.2h2.4c2.8-.1 4.2-.1 6.9-.1H74c.2 0 .4-.1.5-.2.1-.1.2-.2.2-.4v-3.7c0-.1-.1-.3-.2-.4-.1-.1-.3-.2-.5-.2H60.6c-.2 0-.5 0-.7.1-.2.1-.4.1-.6.2-1.3 1.1-2 1.7-3.4 2.9-.1.1-.1.3-.2.5s-.1.4-.1.6v4.8c0 .2.1.4.1.6 0 .2.1.4.2.6zm64.3 7.2c1.3 1.1 2 1.7 3.4 2.8.1.1.4.2.6.2.3.1.5.1.7.1h1.2c3.6.1 5.5.1 9.1.2 1.6 0 2.4.1 4 .1.2.1.4 0 .5-.1.1-.1.2-.2.2-.4v-3.8c0-.2-.1-.3-.2-.4-.1-.1-.3-.2-.5-.2-2.1 0-3.2-.1-5.3-.1-1.7-.1-2.5-.1-4.2-.1h-3c-.1 0-.2 0-.2-.1V35c0-.1.1-.1.2-.1h6.9c1.5.1 2.3.1 3.8.1.5 0 .7-.2.7-.6v-3c0-.1-.1-.3-.2-.4-.1-.1-.3-.2-.5-.2h-10.6c-.1 0-.2 0-.2-.1v-3.5h12.5c.2 0 .4 0 .5-.1.1-.1.2-.2.2-.4v-3.8c0-.2-.1-.3-.2-.4-.1-.1-.3-.2-.5-.2h-14.2c-.2 0-.5.1-.7.1-.2.1-.4.1-.6.2-1.3 1.1-2 1.6-3.4 2.7-.1.1-.1.3-.2.5s-.1.3-.1.5V39c0 .1 0 .3.1.5 0 .2.1.4.2.5zM85 27.8c.1-.2.3-.2.4-.1 4.8-.1 7.2-.1 12-.1.2 0 .4-.1.5-.2.1-.1.2-.2.2-.4v-3.9c0-.2-.1-.3-.2-.4-.1-.1-.3-.2-.5-.2H82.8c-.1 0-.2.1-.4.1-.1.1-.3.1-.5.2-1.3 1.1-2 1.7-3.4 2.8-.1.1-.2.3-.2.5-.1.2-.1.3-.1.5v13c0 .1.1.3.1.5s.1.4.2.5c1.3 1.1 2 1.6 3.4 2.7.1.1.3.2.6.2h1.2c.9-.1 1.4-.1 2.3-.1 4.6-.1 6.9-.1 11.5-.2.2 0 .4-.1.5-.2.1-.1.2-.2.2-.4v-3.9c0-.2-.1-.3-.2-.4s-.3-.1-.5-.1c-4.8.1-7.2.1-12 .2-.2.1-.4 0-.5-.1s-.2-.2-.2-.4v-9.7c0-.2.1-.3.2-.4zm16.1 15.4c6.5-.1 9.7-.1 16.2 0 .2 0 .4-.1.5-.2.1-.1.2-.2.2-.4v-3.9c0-.2-.1-.3-.2-.4-.1-.1-.3-.2-.5-.2h-9.6c-.2 0-.4 0-.5-.1-.1-.1-.2-.2-.2-.4V23.1c0-.4-.2-.6-.7-.6h-5.2c-.5 0-.7.2-.7.6v19.5c0 .4.2.6.7.6zM45.6 11.8l2.8-2.1 2.7 2.1-1-3.3 2.7-2h-3.4l-1-3.2-1.1 3.2h-3.4l2.8 2-1.1 3.3zm127.1 0l2.7-2.1 2.8 2.1-1.1-3.3 2.8-2h-3.4l-1.1-3.2-1 3.2h-3.5l2.8 2-1 3.3z"/></svg>