<svg xmlns="http://www.w3.org/2000/svg" width="220" height="76" viewBox="-1.2 -3.2 220 76" enable-background="new -1.2 -3.2 220 76"><path fill="#51555A" d="M55.2 6.6h5.4l.8 1.4h3.5l-4.4-8h-4.6l-4.4 8h3.1l.6-1.4zM58 1.5l1.7 3.2h-3.3L58 1.5zm12.6.5l2.5 6h4l2.7-6v6h3V0H78l-2.7 6-2.6-6h-4.9v8h2.8V2zm25.5 4.2h-6.8V4.8h6.2V3.1h-6.2V1.7h6.8V0h-9.9v8h9.9V6.2zm6.4-.7h4.2l1.5 2.6h3.3l-1.8-3.2 1.5-1.5V1.5L109.7 0H99.4v8h3.1V5.5zm.1-3.7h5.1l.4.4v1l-.4.4v.1h-5.1V1.8zm19.7 4.4h-2.4V1.8h2.4V0h-7.9v1.8h2.4v4.4h-2.4V8h7.9V6.2zM135.8 8l1.7-1.7V4.8h-3.1v.7l-.6.6h-4.7l-.7-.7V2.5l.7-.7h4.7l.6.6v.7h3.1V1.7L135.8 0h-8.7l-1.7 1.7v4.6l1.7 1.7h8.7zm7.6-1.4h5.4l.8 1.4h3.5l-4.4-8h-4.6l-4.4 8h3.1l.6-1.4zm2.8-5.1l1.7 3.2h-3.3l1.6-3.2zm12.2.5l3.9 6h4.7V0h-2.7v6l-3.9-6h-4.7v8h2.7V2zM53.7 47.5l-1.6 1.6-.8 4.8 1.6 1.6h8.6l1.6-1.6.4-1.7h-3l-.1.8-.7.7h-4.6l-.7-.7.3-3 .7-.7H60l.7.7-.1.7h3l.3-1.6-1.6-1.6h-8.6zm20 7.9h3l1.4-8h-3l-.5 3.1h-5.5l.5-3.1h-3l-1.4 8h3l.5-2.9h5.5l-.5 2.9zm7.8.1l1-1.5h5.3l.6 1.4h3.1l-3.1-8h-4.2l-5.8 8.1h3.1zM86 49l1.2 3.2h-3.4L86 49zm8.5-1.5l-1.4 8h8.9l.3-1.9h-5.9l1.1-6.1h-3zm11 0l-1.4 8h8.9l.3-1.9h-5.9l1.1-6.1h-3zm20.3 1.5l.3-1.6h-9.7l-1.4 7.9h9.6l.3-1.6h-6.8l.3-1.6h6.2l.3-1.6h-6.2l.3-1.5h6.8zm5.4.3l2.9 6.1h4.3l1.4-8h-2.6l-1.1 6.1-3-6.1h-4.3l-1.3 8h2.6l1.1-6.1zm12.4-1.8l-1.6 1.6-.8 4.8 1.4 1.6h8.9L153 54l.6-3.1h-7.2l-.3 1.6h4.2l-.2 1.1-.2.2h-5.1l-.7-.7.6-3.2.7-.7h5.3l.2.2-.1.5h3l.2-1-1.4-1.4h-9zm11.5 7.8h9.8l.3-1.6h-6.8l.3-1.6h6.2l.3-1.6H159l.3-1.5h6.8l.3-1.6h-9.7l-1.6 7.9zm5.6-31.3v-5.2c.1-2.5-1.9-4.5-4.5-4.5h-7.3v5.5h5.5c.3 0 .4.2.4.4V24h5.9zm-46 11h-9.4v5.1h9.4V35zm19.6.4h-10.7V19.5h10.6v-5.2h-16.4v25.8l16.5.5v-5.2zm26.5 2.1v-5.8h-5.9v4.5c0 .2-.2.4-.4.4l-5.5-.7v5.6l7.2.6c2.5 0 4.6-2 4.6-4.6zm-27.4-7.7v-5.2h-9v5.2h9zm8.7-10.9v17.8c0 2.5 2 4.6 4.6 4.6l1.5.1V14.3h-1.5c-2.5 0-4.6 2-4.6 4.6zm-52 1v3.6h5.6v-4.9c-.1-2.3-2-4.3-4.4-4.3h-6.8v5.2h5.2c.1 0 .4.2.4.4zM32.9 39.7c0 2.6 2.1 4.7 4.7 4.7l1.5-.2V14.3h-6.2v25.4zm-18-6.1L7.7 16.4v15.1l4.2 10h5.9l5.1-11.9v16.7l6.7-.9v-31h-6.7l-8 19.2zm37.5-19.3h-6.2v22.3c0 .3-.2.4-.4.4l-5.9.9v6.2l7.8-.9c2.6 0 4.7-2.1 4.7-4.7V14.3zm157.3 20.2c2.2-.7 3.8-2.7 3.8-5.1v-9.7c0-2.9-2.4-5.3-5.3-5.3h-17.8v31.3l7 1v-26h8.7c.3 0 .5.2.5.5v6.6c0 .3-.2.5-.5.5h-7.9v6.3h3.9l6.7 14.2 8.8 1.4-7.9-15.7zM.1 50.2l6.7-1.3V14.4H.1v35.8zm171.4-35.9l-9.4 28.2 6.6.6 5.7-22.2.3 1.3.1.4 2.4 9.1h-4.7l-1.4 5.5h7.9l2.4 7.4 6.7 1-10.3-31.3h-6.3zM70 41.4c2.5 0 4.6-2 4.6-4.6V31c.1-2.5-1.3-3.7-3.7-4.3-5.5-1.5-7.9-2.2-8.3-2.3-.2-.1-.5-.2-.5-.5v-9.5h-1.4c-2.5 0-4.6 2-4.6 4.6v6.2c0 2.5 1.4 3.6 3.9 4.3 5.2 1.5 7.4 2.1 8.1 2.3.3.1.5.3.5.5v9.2l1.4-.1zM95.7 36v-5.1h-5.6v3.8c0 .2-.2.4-.4.4l-5.2.4v5.2l6.8-.4c2.4 0 4.4-1.9 4.4-4.3zM77.8 18.7v17.6c0 2.4 1.9 4.4 4.3 4.4l1.4-.1V14.3h-1.4c-2.3 0-4.3 1.9-4.3 4.4zm-3.3 3.8v-3.7c0-2.5-2-4.6-4.6-4.6H63v5.5h5.2v.1c.3 0 .4.2.4.4v2.3h5.9zm30-8h-5.6v25.6h5.6V14.5zM56.1 33.7v3.7c0 2.5 2 4.6 4.6 4.6l7.2-.5v-5.6l-5.5.6c-.3 0-.4-.2-.4-.4v-2.4h-5.9zM71 61.5c9.8 1.8 37.2 8.1 37.7 8.1s27.9-6.3 37.7-8.1c-10.6 1.2-37.6 4.9-37.7 4.9-.1 0-27.1-3.7-37.7-4.9z"/></svg>