<svg xmlns="http://www.w3.org/2000/svg" width="228" height="76" viewBox="-0.2 -7.1 228 76" enable-background="new -0.2 -7.1 228 76"><path fill="#51555A" d="M74.4 29.1h-9.8l.4-2.4h14.4l.9-5.3H61.9l-5.1 3.1-1 6.1 4.5 3.2h9.9l-.5 2.7H54.9l-.9 5.3h23.3l1.6-9.5-4.5-3.2zm50.3 12.7h21.5l.9-5.3h-13l.4-2.3h7.2l5-4.7h-11.4l.5-2.8h12.7l.9-5.3h-21.2l-3.5 20.4zm61.2-20.4l-5.2 3.2-2.9 17.2h7.3l1-6h7.1l-1 6h7.3l2.9-17.1.7-3.3h-17.2zm8.2 9H187l.6-3.7h7.1l-.6 3.7zm33.6-5.7l-3.3-3.3H206l-3.4 20.4h7.6l1.1-6.7h7.3l-1.1 6.7h7.6l1.2-7.3-2.9-1.9 3.4-2.1.9-5.8zm-8.4 5.7H212l.6-3.7h7.3l-.6 3.7zm-197.5-9l-7.3 13.5-2.6-13.5H3.4L0 41.8h7.2l1.6-9.6 2 9.6h4.9l4.9-9.4-1.6 9.4h7.2l3.5-20.4h-7.9zm24.5 0l-2.6 15.1h-6.3l2.5-15.1h-7.6l-3.4 20.4h22.2l3.4-20.4h-8.2zm131.1 5.3l.9-5.3h-16.2l-5.2 3.1-2.9 17.3h21l.9-5.3h-12.5l1.6-9.8h12.4zm-86.1 0h12.3l.9-5.3H88.2l-5.1 3.1-2.9 17.3h21l.9-5.3H89.6l1.7-9.8zm23.5-5.3h-7.3l-3.4 20.4H122l.9-5.3h-10.6l2.5-15.1zm7-13.5h1.2l-.6-2.2-.6 2.2zm-38.4 0h1.2L84 5.8l-.6 2.1zm20.9-2.7v1.5h1.8c.1 0 .1 0 .1-.1l-.1-1.4h-1.8zM157 0H72.4L57.8 14.3h84.6L157 0zM85.4 10.5L85 9.2h-2l-.4 1.3h-1.4L83.3 4h1.4l2.1 6.5h-1.4zm9.2 0h-1.4V7l-1 2.4H91L90 7v3.4h-1.4V4H90l1.6 3.9L93.2 4h1.4v6.5zm6.3-5.2h-2.6v1.2h2.4v1.3h-2.4v1.4h2.6v1.3h-4V4h4v1.3zm5.5 5.2l-1.1-2.4h-1v2.4h-1.4V4h3.6c.6 0 1.1.5 1.1 1.1v2c0 .5-.3.9-.8 1l1.2 2.4h-1.6zm4.9 0h-1.4V4h1.4v6.5zm6.6-4.3h-1.4v-.9c0-.1 0-.1-.1-.1H115c-.1 0-.1 0-.1.1V9c0 .1 0 .1.1.1h1.4c.1 0 .1 0 .1-.1V8h1.4v1.4c0 .6-.5 1.1-1.1 1.1h-2.2c-.6 0-1.1-.5-1.1-1.1V5c0-.6.5-1.1 1.1-1.1h2.2c.6 0 1.1.5 1.1 1.1v1.2zm5.9 4.3l-.4-1.3h-2l-.4 1.3h-1.4l2.1-6.5h1.4l2.1 6.5h-1.4zm8 0h-1.4l-2.2-3.8v3.8h-1.4V4h1.4l2.2 3.8V4h1.4v6.5zM59.7 49.4h-5.6c-1.3 0-2.3.9-2.3 1.9V58c0 1.1 1 1.9 2.3 1.9h5.6C61 59.9 62 59 62 58v-2.4h-3.8v1.8h-2.4v-5.5h2.4v1.5H62v-2.1c0-1.1-1-1.9-2.3-1.9zm72.2 5.2l-3.6-5.2h-3.5V60h3.7v-5.2l3.6 5.2h3.5V49.4h-3.7v5.2zm19.1 5.5h8.6v-2.6h-4.9v-1.6h4.3v-2.6h-4.3V52h4.9v-2.5H151v10.6zm-37.1 0h8.6v-2.6h-4.9v-1.7h4.3v-2.5h-4.3V52h4.9v-2.5h-8.6v10.6zM146 49.4h-5.6c-1.3 0-2.3.9-2.3 1.9V58c0 1.1 1 1.9 2.3 1.9h4.9l3 1.8V55h-3.7v2.4h-2.7v-5.5h2.7v1.2h3.7v-1.8c0-1.1-1-1.9-2.3-1.9zm-64.1 0L77.7 60h3.9l.7-2h3.3l.8 2h3.8L86 49.4h-4.1zm1.4 6.1l.7-2.7.7 2.7h-1.4zm-11.6-2.2h-2.9v-3.9h-3.9V60h3.9v-4.1h2.9V60h3.9V49.4h-3.9v3.9zm35-3.9H103V60h8.5v-2.6h-4.8v-8zm-10.7 0h-3.8V60h8.5v-2.6H96v-8z"/></svg>