<svg xmlns="http://www.w3.org/2000/svg" width="110" height="100" viewBox="0 0 110 100"><g><path fill="#728594" d="M22.3 61.2c-.3 0-.5 0-.8.1-1.2-1.5-2.9-2.4-4.8-2.4-2.9 0-5.3 2-6 4.8-2 .1-3.6 1.7-3.6 3.7 0 2.1 1.8 3.7 3.9 3.7h11.3c.1 0 1.2 0 2.4-.6 1.1-.6 2.5-1.8 2.5-4.4 0-2.6-2.2-4.9-4.9-4.9zm1.7 8c-.9.5-1.8.5-1.8.5H10.9c-1.3 0-2.4-1-2.4-2.2 0-1.2 1.1-2.2 2.4-2.2h.3s.4 0 .6-.2c.2-.1.2-.5.2-.5.2-2.3 2.2-4.1 4.6-4.1 1.5 0 2.8.7 3.7 1.8 0 0 0 .1.1.1 0 .1.1.1.1.2 0 0 0 .1.1.1.2.3.6.4.9.3.3-.1.6-.1.9-.1 1.9 0 3.4 1.5 3.4 3.4-.1 1.3-.6 2.3-1.8 2.9z"/><g fill="#728594"><path d="M41.2 80.8V61.4c0-2.1-1.7-3.8-3.8-3.8-2.1 0-3.8 1.7-3.8 3.8v19.4c-2.2 1.3-3.6 3.7-3.6 6.3 0 4.1 3.3 7.4 7.4 7.4 4.1 0 7.4-3.3 7.4-7.4 0-2.6-1.3-5-3.6-6.3zm-3.7 12c-3.1 0-5.6-2.5-5.6-5.6 0-2.1 1.2-4.1 3.1-5l.5-.2V61.4c0-1.1.9-2 2-2s2 .9 2 2v20.5l.5.2c1.9 1 3.1 2.9 3.1 5 0 3.2-2.5 5.7-5.6 5.7zM38.3 83.8V79c0-.5-.4-.8-.8-.8-.5 0-.8.4-.8.8v4.8c-1.5.4-2.6 1.7-2.6 3.3 0 1.9 1.5 3.4 3.4 3.4s3.4-1.5 3.4-3.4c0-1.6-1.1-2.9-2.6-3.3z"/></g></g><g fill="#728594"><path d="M96.9 95.9H72.3c-.2 0-.4-.1-.6-.2-5.4-4.3-8.5-10.7-8.5-17.7 0-7.1 3.3-13.9 8.9-18 .2-.1.4-.2.6-.2h23.9c.2 0 .4.1.6.2 5.6 4.2 8.9 10.9 8.9 18 0 7-3.1 13.5-8.5 17.7-.2.1-.5.2-.7.2zm-24.3-2h23.9c4.8-3.9 7.5-9.7 7.5-16 0-6.4-2.9-12.5-7.8-16.3H73c-4.9 3.8-7.8 9.9-7.8 16.3-.1 6.3 2.7 12.1 7.4 16zM78.6 79.7h-3.1c-.8 0-1.4-.6-1.4-1.4V67.6c0-.8.6-1.4 1.4-1.4h3.1c.8 0 1.4.6 1.4 1.4v10.6c-.1.8-.7 1.5-1.4 1.5zm-2.5-2.1h1.8v-9.4h-1.8v9.4zM93.3 77.9h-3.1c-.8 0-1.4-.6-1.4-1.3v-7.4c0-.7.6-1.3 1.4-1.3h3.1c.8 0 1.4.6 1.4 1.3v7.4c0 .7-.6 1.3-1.4 1.3zm-2.4-2h1.8V70h-1.8v5.9zM84.4 91.2c-2.7 0-4.8-2.2-4.8-4.8V84c0-.6.5-1 1-1h7.7c.6 0 1 .5 1 1v2.4c-.1 2.6-2.3 4.8-4.9 4.8zm-2.8-6.3v1.4c0 1.6 1.3 2.8 2.8 2.8 1.6 0 2.8-1.3 2.8-2.8v-1.4h-5.6z"/></g><g fill="#728594"><path d="M85.5 38.1H82c-1.1 0-1.9-.9-1.9-1.9v-1.8c0-.5.4-.9.9-.9s.9.4.9.9v1.8c0 .1.1.2.2.2h3.5c.1 0 .2-.1.2-.2v-1.8c0-.5.4-.9.9-.9s.9.4.9.9v1.8c-.1 1-1 1.9-2.1 1.9zM80.7 26.8h-.2c-.5-.1-.8-.6-.7-1 0 0 .4-2.1-.6-3.3-.5-.6-1.2-.9-2.3-.9-.5 0-.9-.4-.9-.9s.4-.9.9-.9c1.6 0 2.9.5 3.7 1.5 1.5 1.9.9 4.7.9 4.8 0 .4-.4.7-.8.7zM86.6 26.8c-.4 0-.8-.3-.9-.7 0-.1-.6-2.9.9-4.8.8-1 2.1-1.5 3.7-1.5.5 0 .9.4.9.9s-.4.9-.9.9c-1.1 0-1.8.3-2.3.9-1 1.2-.6 3.3-.6 3.3.1.5-.2.9-.7 1h-.1zM77 21.6c-.4 0-.8-.3-.9-.7-.1-.5.2-.9.7-1 .1 0 5.9-1.1 11.5-2.2 1.1-.2 1.5-.5 1.7-.6-.2-.3-1.2-1-2.1-1.4-.4-.2-.7-.7-.5-1.1.2-.4.7-.7 1.1-.5 1 .4 3.4 1.6 3.2 3.2-.1 1.3-1.9 1.8-3.1 2.1-5.6 1.1-11.4 2.2-11.5 2.2H77zM77 17.9c-.4 0-.8-.3-.9-.7-.1-.5.2-.9.7-1 .1 0 5.9-1.1 11.5-2.2 1.1-.2 1.5-.5 1.7-.6-.2-.3-1.2-1-2.1-1.4-.4-.2-.7-.7-.5-1.1.2-.4.7-.7 1.1-.5 1 .4 3.4 1.6 3.2 3.2-.1 1.3-1.9 1.8-3.1 2.1-5.6 1.1-11.4 2.2-11.5 2.2 0-.1 0 0-.1 0zM76.7 14.1c-.4 0-.8-.3-.9-.7-.1-.5.2-.9.7-1 .1 0 8-1.4 12-2.3.7-.1 1-.3 1.1-.4-.1-.2-.4-.5-1.4-1-.4-.2-1-.2-1.3-.1l-10.2 1.9c-.5.1-.9-.2-1-.7-.1-.5.2-.9.7-1l10.1-1.9c.1 0 1.5-.3 2.5.3.8.5 2.5 1.5 2.2 2.9-.2 1.3-1.9 1.7-2.5 1.8-4 .9-12 2.3-12.1 2.3.2-.1.2-.1.1-.1zM79.4 6.8c-.4 0-.8-.3-.9-.7-.1-.5.2-.9.7-1l5.2-.9c.5-.1.9.2 1 .7.1.5-.2.9-.7 1l-5.2.9c0-.1-.1 0-.1 0zM87.5 34.9h-7.4c-.2 0-.4-.1-.6-.2l-2.9-2.9c-.2-.2-.3-.4-.3-.7v-5c0-.5.4-.9.9-.9h13.5c.5 0 .9.4.9.9v5c0 .4-.2.7-.5.8l-2.8 2.8c-.4.1-.6.2-.8.2zm-7.1-1.7h6.7l2.6-2.5V27H77.9v3.8l2.5 2.4z"/></g><g fill="#728594"><path d="M26.9 38.7c-7.9 0-15.3-1.3-21.5-3.6-.4-.2-.7-.6-.7-1V8.4c0-.4.3-.8.7-1C11.6 5 19.1 3.8 26.9 3.8c7.7 0 15 1.2 21.1 3.5.4.2.7.6.7 1v25.9c0 .4-.3.8-.7 1-6.1 2.3-13.4 3.5-21.1 3.5zm-20-5.4c5.8 2.1 12.7 3.2 20.1 3.2 7.2 0 14-1.1 19.7-3.1V9C41 7 34.2 5.9 27 5.9 19.6 5.9 12.7 7 6.9 9.1v24.2zm35-3.9H21.6c-.6 0-1.1-.5-1.1-1.1V14.1c0-.6.5-1.1 1.1-1.1h20.3c.6 0 1.1.5 1.1 1.1v14.3c0 .6-.5 1-1.1 1zm-19.2-2.1h18.2V15.2H22.7v12.1zM16.3 19.3v.1c0 .1-.1.1-.2.1h-4c-.1 0-.2 0-.2-.1v-.2l2-3.5c0-.1.1-.1.2-.1s.2 0 .2.1l2 3.5v.1zM11.8 23v-.1c0-.1.1-.1.2-.1h4c.1 0 .2 0 .2.1v.2l-2 3.5c0 .1-.1.1-.2.1s-.2 0-.2-.1l-2-3.5V23zM28.7 19.8c.2-.4.4-.6.4-.6H26v-1h4.3v.8l-2.7 5.5h-1.2l2.3-4.7zM30 22.2l2.7-4H34V22h.8v.9H34v1.6h-1v-1.6h-3v-.7zm3-.2v-2.7s-.1.3-.3.6l-1.4 2 1.7.1zM38.4 20c0 1-.7 1.5-1.5 1.5s-1.4-.6-1.4-1.4c0-.9.6-1.5 1.5-1.5.8 0 1.4.6 1.4 1.4zm-2.1.1c0 .5.3.9.7.9.4 0 .7-.4.7-.9 0-.4-.2-.9-.7-.9-.5 0-.7.5-.7.9z"/></g></svg>