<svg xmlns="http://www.w3.org/2000/svg" width="60" height="60" viewBox="0 0 60 60"><path fill="#347CC0" d="M24.7 47.3m0 0l5.8-14.1-5.8-5.8L36.3 12l-5.8 14.1 5.8 5.8-11.6 15.4m-1.9 0v.1c.1 1 .9 1.8 2 1.8.7 0 1.2-.3 1.6-.8L37.9 33c.3-.4.4-.8.4-1.2 0-.5-.2-1-.6-1.4l-4.9-4.8 5.3-12.9c.1-.2.1-.5.1-.7 0-.7-.4-1.3-1-1.7-.9-.5-1.9-.3-2.5.5L23.2 26.2c-.3.4-.4.8-.4 1.2 0 .5.2 1 .6 1.4l4.9 4.8L23 46.5c-.1.2-.1.3-.1.5-.1.1-.1.2-.1.3zM30 60C13.5 60 0 46.5 0 30S13.5 0 30 0s30 13.5 30 30-13.5 30-30 30zm0-57.3C15 2.7 2.7 15 2.7 30S15 57.3 30 57.3 57.3 45 57.3 30 45 2.7 30 2.7z"/></svg>